<svg xmlns="http://www.w3.org/2000/svg" xmlns:xlink="http://www.w3.org/1999/xlink" width="500" zoomAndPan="magnify" viewBox="0 0 375 374.999991" height="500" preserveAspectRatio="xMidYMid meet" version="1.0"><defs><clipPath id="id1"><path d="M 37.5 30.121094 L 311.25 30.121094 L 311.25 345.121094 L 37.5 345.121094 Z M 37.5 30.121094 " clip-rule="nonzero"/></clipPath><clipPath id="id2"><path d="M 271.078125 143.882812 L 369.328125 143.882812 L 369.328125 240.632812 L 271.078125 240.632812 Z M 271.078125 143.882812 " clip-rule="nonzero"/></clipPath></defs><g clip-path="url(#id1)"><path fill="#000000" d="M 256.960938 242.402344 C 253.941406 242.402344 251.398438 244.417969 250.421875 247.273438 C 240.855469 275.011719 214.109375 290.339844 179.675781 290.339844 C 129.488281 290.339844 99.128906 252.359375 99.128906 187.519531 C 99.128906 122.882812 129.488281 84.902344 179.472656 84.902344 C 214.707031 84.902344 242.035156 103.25 251.023438 134.507812 C 251.890625 137.523438 254.511719 139.6875 257.636719 139.6875 C 257.636719 139.6875 295.5 139.707031 307.761719 139.6875 C 309.820312 139.679688 311.429688 137.859375 311.164062 135.816406 C 303.144531 74.433594 248.09375 30.121094 179.472656 30.121094 C 91.941406 30.121094 37.566406 90.511719 37.566406 187.722656 C 37.566406 284.804688 92.023438 345.121094 179.675781 345.121094 C 248.546875 345.121094 301.265625 305.507812 311.148438 246.417969 C 311.5 244.335938 309.871094 242.410156 307.757812 242.402344 Z M 256.960938 242.402344 " fill-opacity="1" fill-rule="nonzero"/></g><path fill="#ffd773" d="M 345.703125 192.257812 C 345.703125 193.082031 345.664062 193.902344 345.582031 194.722656 C 345.5 195.539062 345.378906 196.351562 345.214844 197.160156 C 345.050781 197.96875 344.847656 198.765625 344.605469 199.550781 C 344.363281 200.339844 344.082031 201.113281 343.761719 201.875 C 343.445312 202.632812 343.085938 203.378906 342.695312 204.101562 C 342.300781 204.828125 341.871094 205.535156 341.40625 206.21875 C 340.941406 206.902344 340.445312 207.5625 339.917969 208.199219 C 339.386719 208.835938 338.824219 209.445312 338.234375 210.027344 C 337.644531 210.609375 337.027344 211.160156 336.382812 211.683594 C 335.734375 212.203125 335.066406 212.695312 334.371094 213.152344 C 333.675781 213.609375 332.960938 214.03125 332.226562 214.417969 C 331.488281 214.808594 330.734375 215.160156 329.960938 215.472656 C 329.191406 215.789062 328.40625 216.066406 327.605469 216.304688 C 326.808594 216.542969 325.996094 216.742188 325.179688 216.902344 C 324.359375 217.0625 323.535156 217.183594 322.703125 217.265625 C 321.871094 217.347656 321.039062 217.386719 320.203125 217.386719 C 319.367188 217.386719 318.535156 217.347656 317.703125 217.265625 C 316.871094 217.183594 316.046875 217.0625 315.226562 216.902344 C 314.410156 216.742188 313.601562 216.542969 312.800781 216.304688 C 312 216.066406 311.214844 215.789062 310.445312 215.472656 C 309.671875 215.160156 308.917969 214.808594 308.183594 214.417969 C 307.445312 214.03125 306.730469 213.609375 306.035156 213.152344 C 305.339844 212.695312 304.671875 212.203125 304.027344 211.683594 C 303.378906 211.160156 302.761719 210.609375 302.171875 210.027344 C 301.582031 209.445312 301.019531 208.835938 300.492188 208.199219 C 299.960938 207.5625 299.464844 206.902344 299 206.21875 C 298.535156 205.535156 298.105469 204.828125 297.714844 204.101562 C 297.320312 203.378906 296.964844 202.632812 296.644531 201.875 C 296.324219 201.113281 296.042969 200.339844 295.800781 199.550781 C 295.558594 198.765625 295.355469 197.96875 295.191406 197.160156 C 295.027344 196.351562 294.90625 195.539062 294.824219 194.722656 C 294.742188 193.902344 294.703125 193.082031 294.703125 192.257812 C 294.703125 191.433594 294.742188 190.613281 294.824219 189.792969 C 294.90625 188.976562 295.027344 188.164062 295.191406 187.355469 C 295.355469 186.546875 295.558594 185.75 295.800781 184.964844 C 296.042969 184.175781 296.324219 183.402344 296.644531 182.640625 C 296.964844 181.882812 297.320312 181.136719 297.714844 180.414062 C 298.105469 179.6875 298.535156 178.980469 299 178.296875 C 299.464844 177.613281 299.960938 176.953125 300.492188 176.316406 C 301.019531 175.679688 301.582031 175.070312 302.171875 174.488281 C 302.761719 173.90625 303.378906 173.355469 304.027344 172.832031 C 304.671875 172.3125 305.339844 171.820312 306.035156 171.363281 C 306.730469 170.90625 307.445312 170.484375 308.183594 170.097656 C 308.917969 169.707031 309.671875 169.355469 310.445312 169.042969 C 311.214844 168.726562 312 168.449219 312.800781 168.210938 C 313.601562 167.972656 314.410156 167.773438 315.226562 167.613281 C 316.046875 167.453125 316.871094 167.332031 317.703125 167.25 C 318.535156 167.167969 319.367188 167.128906 320.203125 167.128906 C 321.039062 167.128906 321.871094 167.167969 322.703125 167.25 C 323.535156 167.332031 324.359375 167.453125 325.179688 167.613281 C 325.996094 167.773438 326.808594 167.972656 327.605469 168.210938 C 328.40625 168.449219 329.191406 168.726562 329.960938 169.042969 C 330.734375 169.355469 331.488281 169.707031 332.226562 170.097656 C 332.960938 170.484375 333.675781 170.90625 334.371094 171.363281 C 335.066406 171.820312 335.734375 172.3125 336.382812 172.832031 C 337.027344 173.355469 337.644531 173.90625 338.234375 174.488281 C 338.824219 175.070312 339.386719 175.679688 339.917969 176.316406 C 340.445312 176.953125 340.941406 177.613281 341.40625 178.296875 C 341.871094 178.980469 342.300781 179.6875 342.695312 180.414062 C 343.085938 181.136719 343.445312 181.882812 343.761719 182.640625 C 344.082031 183.402344 344.363281 184.175781 344.605469 184.964844 C 344.847656 185.75 345.050781 186.546875 345.214844 187.355469 C 345.378906 188.164062 345.5 188.976562 345.582031 189.792969 C 345.664062 190.613281 345.703125 191.433594 345.703125 192.257812 Z M 345.703125 192.257812 " fill-opacity="1" fill-rule="nonzero"/><g clip-path="url(#id2)"><path fill="#d1a12a" d="M 320.203125 160.898438 C 319.460938 160.898438 318.878906 160.316406 318.878906 159.574219 L 318.878906 145.207031 C 318.878906 144.464844 319.460938 143.882812 320.203125 143.882812 C 320.945312 143.882812 321.527344 144.464844 321.527344 145.207031 L 321.527344 159.574219 C 321.527344 160.289062 320.917969 160.898438 320.203125 160.898438 Z M 321.527344 239.308594 L 321.527344 224.941406 C 321.527344 224.199219 320.945312 223.617188 320.203125 223.617188 C 319.460938 223.617188 318.878906 224.199219 318.878906 224.941406 L 318.878906 239.308594 C 318.878906 240.050781 319.460938 240.632812 320.203125 240.632812 C 320.945312 240.632812 321.527344 240.050781 321.527344 239.308594 Z M 288.320312 192.257812 C 288.320312 191.515625 287.738281 190.933594 286.996094 190.933594 L 272.429688 190.933594 C 271.691406 190.933594 271.109375 191.515625 271.109375 192.257812 C 271.109375 193 271.691406 193.582031 272.429688 193.582031 L 286.996094 193.582031 C 287.738281 193.582031 288.320312 193 288.320312 192.257812 Z M 369.300781 192.257812 C 369.300781 191.515625 368.71875 190.933594 367.976562 190.933594 L 353.410156 190.933594 C 352.667969 190.933594 352.085938 191.515625 352.085938 192.257812 C 352.085938 193 352.667969 193.582031 353.410156 193.582031 L 367.976562 193.582031 C 368.71875 193.582031 369.300781 193 369.300781 192.257812 Z M 297.667969 170.070312 C 298.171875 169.542969 298.171875 168.71875 297.640625 168.191406 L 287.339844 158.039062 C 286.8125 157.535156 285.988281 157.535156 285.460938 158.0625 C 284.957031 158.59375 284.957031 159.414062 285.488281 159.945312 L 295.789062 170.097656 C 296.050781 170.363281 296.371094 170.46875 296.714844 170.46875 C 297.058594 170.46875 297.402344 170.335938 297.667969 170.070312 Z M 354.921875 226.476562 C 355.421875 225.949219 355.421875 225.125 354.894531 224.597656 L 344.59375 214.445312 C 344.0625 213.941406 343.242188 213.941406 342.710938 214.46875 C 342.210938 215 342.210938 215.824219 342.738281 216.351562 L 353.039062 226.503906 C 353.304688 226.769531 353.621094 226.875 353.96875 226.875 C 354.3125 226.875 354.65625 226.742188 354.921875 226.476562 Z M 287.339844 226.476562 L 297.640625 216.324219 C 298.171875 215.824219 298.171875 214.972656 297.667969 214.445312 C 297.164062 213.914062 296.316406 213.914062 295.789062 214.417969 L 285.488281 224.597656 C 284.957031 225.101562 284.957031 225.949219 285.460938 226.476562 C 285.726562 226.742188 286.070312 226.875 286.414062 226.875 C 286.757812 226.875 287.074219 226.742188 287.339844 226.476562 Z M 344.59375 170.097656 L 354.894531 159.945312 C 355.421875 159.441406 355.421875 158.59375 354.921875 158.0625 C 354.417969 157.535156 353.570312 157.535156 353.039062 158.039062 L 342.738281 168.191406 C 342.210938 168.691406 342.210938 169.542969 342.710938 170.070312 C 342.976562 170.335938 343.320312 170.46875 343.664062 170.46875 C 344.011719 170.46875 344.355469 170.335938 344.59375 170.097656 Z M 307.96875 163.207031 C 308.632812 162.914062 308.949219 162.144531 308.683594 161.484375 L 306.089844 155.308594 C 305.796875 154.644531 305.03125 154.328125 304.339844 154.589844 C 303.679688 154.882812 303.363281 155.652344 303.625 156.3125 L 306.222656 162.492188 C 306.433594 162.996094 306.9375 163.3125 307.441406 163.3125 C 307.652344 163.3125 307.808594 163.285156 307.96875 163.207031 Z M 336.039062 229.949219 C 336.699219 229.660156 337.019531 228.890625 336.753906 228.226562 L 334.160156 222.050781 C 333.867188 221.390625 333.101562 221.070312 332.410156 221.335938 C 331.75 221.628906 331.429688 222.394531 331.695312 223.058594 L 334.292969 229.234375 C 334.503906 229.738281 335.007812 230.054688 335.507812 230.054688 C 335.695312 230.054688 335.878906 230.003906 336.039062 229.949219 Z M 283.6875 208.585938 L 289.960938 206.015625 C 290.652344 205.75 290.96875 204.953125 290.675781 204.292969 C 290.414062 203.601562 289.617188 203.285156 288.957031 203.574219 L 282.679688 206.148438 C 281.992188 206.414062 281.671875 207.207031 281.964844 207.871094 C 282.175781 208.375 282.679688 208.691406 283.183594 208.691406 C 283.339844 208.691406 283.527344 208.664062 283.6875 208.585938 Z M 351.425781 180.964844 L 357.699219 178.394531 C 358.390625 178.128906 358.707031 177.335938 358.414062 176.671875 C 358.152344 175.984375 357.355469 175.664062 356.695312 175.957031 L 350.417969 178.527344 C 349.730469 178.792969 349.414062 179.585938 349.703125 180.25 C 349.914062 180.753906 350.417969 181.070312 350.921875 181.070312 C 351.105469 181.046875 351.265625 181.019531 351.425781 180.964844 Z M 334.160156 162.515625 L 336.753906 156.339844 C 337.046875 155.679688 336.726562 154.882812 336.039062 154.617188 C 335.351562 154.328125 334.582031 154.644531 334.292969 155.332031 L 331.695312 161.511719 C 331.40625 162.171875 331.722656 162.96875 332.410156 163.234375 C 332.570312 163.3125 332.753906 163.339844 332.914062 163.339844 C 333.445312 163.3125 333.945312 163.019531 334.160156 162.515625 Z M 306.089844 229.234375 L 308.683594 223.058594 C 308.976562 222.394531 308.65625 221.601562 307.96875 221.335938 C 307.28125 221.042969 306.511719 221.363281 306.222656 222.050781 L 303.625 228.226562 C 303.335938 228.890625 303.652344 229.683594 304.339844 229.949219 C 304.5 230.03125 304.683594 230.054688 304.84375 230.054688 C 305.375 230.054688 305.878906 229.738281 306.089844 229.234375 Z M 290.703125 180.222656 C 290.96875 179.535156 290.652344 178.765625 289.988281 178.5 L 283.710938 175.929688 C 283.023438 175.664062 282.257812 175.984375 281.992188 176.644531 C 281.726562 177.335938 282.042969 178.101562 282.707031 178.367188 L 288.980469 180.9375 C 289.140625 181.019531 289.328125 181.046875 289.484375 181.046875 C 289.988281 181.046875 290.492188 180.726562 290.703125 180.222656 Z M 358.441406 207.871094 C 358.707031 207.179688 358.390625 206.414062 357.726562 206.148438 L 351.425781 203.574219 C 350.734375 203.3125 349.96875 203.628906 349.703125 204.292969 C 349.4375 204.980469 349.757812 205.75 350.417969 206.015625 L 356.695312 208.585938 C 356.851562 208.664062 357.039062 208.691406 357.199219 208.691406 C 357.726562 208.691406 358.230469 208.375 358.441406 207.871094 Z M 358.441406 207.871094 " fill-opacity="1" fill-rule="nonzero"/></g></svg>