<svg id="visual" viewBox="0 0 900 600" width="900" height="600" xmlns="http://www.w3.org/2000/svg" xmlns:xlink="http://www.w3.org/1999/xlink" version="1.1"><rect x="0" y="0" width="900" height="600" fill="#49697e"></rect><path d="M0 405L21.5 398.2C43 391.3 86 377.7 128.8 380.8C171.7 384 214.3 404 257.2 412.7C300 421.3 343 418.7 385.8 420.3C428.7 422 471.3 428 514.2 420.5C557 413 600 392 642.8 390C685.7 388 728.3 405 771.2 415.7C814 426.3 857 430.7 878.5 432.8L900 435L900 601L878.5 601C857 601 814 601 771.2 601C728.3 601 685.7 601 642.8 601C600 601 557 601 514.2 601C471.3 601 428.7 601 385.8 601C343 601 300 601 257.2 601C214.3 601 171.7 601 128.8 601C86 601 43 601 21.5 601L0 601Z" fill="#72e2e9"></path><path d="M0 400L21.5 406.2C43 412.3 86 424.7 128.8 432.5C171.7 440.3 214.3 443.7 257.2 441.5C300 439.3 343 431.7 385.8 423.5C428.7 415.3 471.3 406.7 514.2 404C557 401.3 600 404.7 642.8 412.3C685.7 420 728.3 432 771.2 443.8C814 455.7 857 467.3 878.5 473.2L900 479L900 601L878.5 601C857 601 814 601 771.2 601C728.3 601 685.7 601 642.8 601C600 601 557 601 514.2 601C471.3 601 428.7 601 385.8 601C343 601 300 601 257.2 601C214.3 601 171.7 601 128.8 601C86 601 43 601 21.5 601L0 601Z" fill="#5db7ca"></path><path d="M0 496L21.5 487.8C43 479.7 86 463.3 128.8 462.2C171.7 461 214.3 475 257.2 478C300 481 343 473 385.8 475.7C428.7 478.3 471.3 491.7 514.2 490.3C557 489 600 473 642.8 467.7C685.7 462.3 728.3 467.7 771.2 468.3C814 469 857 465 878.5 463L900 461L900 601L878.5 601C857 601 814 601 771.2 601C728.3 601 685.7 601 642.8 601C600 601 557 601 514.2 601C471.3 601 428.7 601 385.8 601C343 601 300 601 257.2 601C214.3 601 171.7 601 128.8 601C86 601 43 601 21.5 601L0 601Z" fill="#4f8da6"></path><path d="M0 489L21.5 488.3C43 487.7 86 486.3 128.8 490.7C171.7 495 214.3 505 257.2 510.8C300 516.7 343 518.3 385.8 517.7C428.7 517 471.3 514 514.2 507.5C557 501 600 491 642.8 487.2C685.7 483.3 728.3 485.7 771.2 492.2C814 498.7 857 509.3 878.5 514.7L900 520L900 601L878.5 601C857 601 814 601 771.2 601C728.3 601 685.7 601 642.8 601C600 601 557 601 514.2 601C471.3 601 428.7 601 385.8 601C343 601 300 601 257.2 601C214.3 601 171.7 601 128.8 601C86 601 43 601 21.5 601L0 601Z" fill="#43657e"></path><path d="M0 559L21.5 554.3C43 549.7 86 540.3 128.8 541.8C171.7 543.3 214.3 555.7 257.2 559.7C300 563.7 343 559.3 385.8 557.2C428.7 555 471.3 555 514.2 555.7C557 556.3 600 557.7 642.8 554.7C685.7 551.7 728.3 544.3 771.2 539.7C814 535 857 533 878.5 532L900 531L900 601L878.5 601C857 601 814 601 771.2 601C728.3 601 685.7 601 642.8 601C600 601 557 601 514.2 601C471.3 601 428.7 601 385.8 601C343 601 300 601 257.2 601C214.3 601 171.7 601 128.8 601C86 601 43 601 21.5 601L0 601Z" fill="#334155"></path></svg>