<svg xmlns="http://www.w3.org/2000/svg" xmlns:xlink="http://www.w3.org/1999/xlink" width="500" zoomAndPan="magnify" viewBox="0 0 375 374.999991" height="500" preserveAspectRatio="xMidYMid meet" version="1.0"><defs><clipPath id="id1"><path d="M 187 71 L 299 71 L 299 193 L 187 193 Z M 187 71 " clip-rule="nonzero"/></clipPath><clipPath id="id2"><path d="M 187.503906 178.007812 L 288.171875 66.804688 L 304.296875 81.402344 L 203.628906 192.605469 Z M 187.503906 178.007812 " clip-rule="nonzero"/></clipPath><clipPath id="id3"><path d="M 187.503906 178.007812 L 288.171875 66.804688 L 304.296875 81.402344 L 203.628906 192.605469 Z M 187.503906 178.007812 " clip-rule="nonzero"/></clipPath><clipPath id="id4"><path d="M 187.503906 178.007812 L 288.171875 66.804688 L 304.296875 81.402344 L 203.628906 192.605469 Z M 187.503906 178.007812 " clip-rule="nonzero"/></clipPath><clipPath id="id5"><path d="M 196 73 L 299 73 L 299 193 L 196 193 Z M 196 73 " clip-rule="nonzero"/></clipPath><clipPath id="id6"><path d="M 187.503906 178.007812 L 288.171875 66.804688 L 304.296875 81.402344 L 203.628906 192.605469 Z M 187.503906 178.007812 " clip-rule="nonzero"/></clipPath><clipPath id="id7"><path d="M 187.503906 178.007812 L 288.171875 66.804688 L 304.296875 81.402344 L 203.628906 192.605469 Z M 187.503906 178.007812 " clip-rule="nonzero"/></clipPath><clipPath id="id8"><path d="M 187.503906 178.007812 L 288.171875 66.804688 L 304.296875 81.402344 L 203.628906 192.605469 Z M 187.503906 178.007812 " clip-rule="nonzero"/></clipPath><clipPath id="id9"><path d="M 21 183 L 168 183 L 168 239 L 21 239 Z M 21 183 " clip-rule="nonzero"/></clipPath><clipPath id="id10"><path d="M 163.109375 178.375 L 171.285156 212.660156 L 25.378906 247.464844 L 17.199219 213.175781 Z M 163.109375 178.375 " clip-rule="nonzero"/></clipPath><clipPath id="id11"><path d="M 163.109375 178.375 L 171.285156 212.660156 L 25.378906 247.464844 L 17.199219 213.175781 Z M 163.109375 178.375 " clip-rule="nonzero"/></clipPath><clipPath id="id12"><path d="M 163.109375 178.375 L 171.285156 212.660156 L 25.378906 247.464844 L 17.199219 213.175781 Z M 163.109375 178.375 " clip-rule="nonzero"/></clipPath><clipPath id="id13"><path d="M 163.121094 178.421875 L 171.304688 212.730469 L 25.335938 247.546875 L 17.152344 213.242188 Z M 163.121094 178.421875 " clip-rule="nonzero"/></clipPath><clipPath id="id14"><path d="M 163.121094 178.421875 L 171.273438 212.613281 L 25.371094 247.414062 L 17.214844 213.226562 Z M 163.121094 178.421875 " clip-rule="nonzero"/></clipPath></defs><g clip-path="url(#id1)"><g clip-path="url(#id2)"><g clip-path="url(#id3)"><g clip-path="url(#id4)"><path fill="#a7bfca" d="M 212.261719 150.824219 C 215.457031 147.285156 220.453125 146.34375 224.574219 148.148438 L 284.882812 74.765625 C 287.652344 71.347656 292.699219 70.925781 295.953125 73.851562 C 299.207031 76.78125 299.316406 81.84375 296.203125 84.957031 L 229.554688 152.632812 C 231.78125 156.539062 231.371094 161.605469 228.183594 165.160156 C 219.988281 174.265625 211.789062 183.378906 203.589844 192.484375 L 201.535156 190.636719 L 221.492188 168.464844 L 218.921875 166.152344 L 198.964844 188.324219 C 198.28125 187.707031 197.597656 187.089844 196.910156 186.476562 L 216.867188 164.304688 L 214.296875 161.988281 L 194.339844 184.160156 C 193.65625 183.546875 192.96875 182.929688 192.285156 182.3125 L 212.242188 160.140625 L 209.671875 157.824219 L 189.714844 180 L 187.664062 178.152344 C 195.859375 169.042969 204.058594 159.933594 212.261719 150.824219 " fill-opacity="1" fill-rule="nonzero"/></g></g></g></g><g clip-path="url(#id5)"><g clip-path="url(#id6)"><g clip-path="url(#id7)"><g clip-path="url(#id8)"><path fill="#000000" d="M 295.953125 73.851562 C 299.207031 76.78125 299.316406 81.84375 296.203125 84.957031 L 229.554688 152.632812 C 231.78125 156.539062 231.371094 161.605469 228.183594 165.160156 C 219.988281 174.265625 211.789062 183.378906 203.589844 192.484375 L 201.535156 190.636719 L 221.492188 168.464844 L 218.921875 166.152344 L 198.964844 188.324219 C 198.28125 187.707031 197.597656 187.089844 196.910156 186.476562 L 216.867188 164.304688 L 215.582031 163.144531 Z M 295.953125 73.851562 " fill-opacity="0.2" fill-rule="nonzero"/></g></g></g></g><g clip-path="url(#id9)"><g clip-path="url(#id10)"><g clip-path="url(#id11)"><g clip-path="url(#id12)"><g clip-path="url(#id13)"><g clip-path="url(#id14)"><path fill="#594a47" d="M 126.085938 211.40625 C 126.085938 211.40625 125.890625 211.53125 125.554688 211.628906 C 125.222656 211.726562 124.738281 211.773438 124.25 211.628906 C 123.761719 211.480469 123.394531 211.167969 123.175781 210.910156 C 122.953125 210.644531 122.867188 210.433594 122.867188 210.433594 C 122.867188 210.433594 123.066406 210.472656 123.363281 210.539062 C 123.660156 210.609375 124.054688 210.703125 124.476562 210.832031 C 124.90625 210.964844 125.296875 211.109375 125.59375 211.21875 C 125.890625 211.324219 126.085938 211.40625 126.085938 211.40625 Z M 120.277344 203.121094 C 120.421875 203.203125 120.589844 203.289062 120.777344 203.375 C 120.726562 203.609375 120.6875 203.84375 120.660156 204.074219 C 120.492188 204.054688 120.335938 204.035156 120.195312 204.023438 C 120.210938 203.726562 120.238281 203.421875 120.277344 203.121094 Z M 120.824219 200.832031 C 121.035156 200.925781 121.265625 201.015625 121.515625 201.101562 C 121.402344 201.347656 121.300781 201.601562 121.203125 201.859375 C 121.03125 201.832031 120.867188 201.808594 120.726562 201.792969 C 120.65625 201.78125 120.59375 201.777344 120.535156 201.769531 C 120.605469 201.503906 120.679688 201.238281 120.769531 200.976562 C 120.785156 200.925781 120.804688 200.878906 120.824219 200.832031 Z M 121.386719 199.472656 C 121.609375 199.613281 121.867188 199.757812 122.15625 199.882812 C 122.0625 200.039062 121.96875 200.199219 121.878906 200.367188 C 121.589844 200.296875 121.3125 200.242188 121.054688 200.207031 C 121.160156 199.957031 121.269531 199.710938 121.386719 199.472656 Z M 121.917969 198.503906 C 122.183594 198.644531 122.492188 198.785156 122.835938 198.902344 C 122.761719 198.996094 122.691406 199.09375 122.617188 199.195312 C 122.273438 199.085938 121.949219 199.007812 121.660156 198.949219 C 121.742188 198.796875 121.828125 198.648438 121.917969 198.503906 Z M 121.019531 197.832031 C 121.230469 197.605469 121.460938 197.351562 121.742188 197.101562 C 121.921875 196.929688 122.109375 196.746094 122.308594 196.5625 C 122.316406 196.566406 122.324219 196.574219 122.328125 196.574219 C 121.996094 196.972656 121.679688 197.398438 121.382812 197.851562 C 121.226562 197.839844 121.097656 197.835938 121.019531 197.832031 Z M 132.699219 191.015625 C 132.714844 191.035156 132.734375 191.058594 132.753906 191.078125 C 132.714844 191.085938 132.671875 191.09375 132.625 191.101562 C 132.445312 191.128906 132.199219 191.179688 131.894531 191.242188 C 131.859375 191.230469 131.824219 191.214844 131.789062 191.199219 C 131.730469 191.175781 131.671875 191.15625 131.613281 191.136719 C 131.9375 191.027344 132.253906 190.925781 132.5625 190.839844 C 132.597656 190.890625 132.644531 190.949219 132.699219 191.015625 Z M 130.019531 191.730469 C 130.265625 191.628906 130.507812 191.53125 130.75 191.441406 C 130.769531 191.460938 130.792969 191.480469 130.8125 191.5 C 130.566406 191.566406 130.300781 191.644531 130.019531 191.730469 Z M 129.902344 192.15625 C 130.019531 192.277344 130.175781 192.414062 130.363281 192.542969 C 130.300781 192.5625 130.238281 192.578125 130.171875 192.601562 C 130.101562 192.625 130.023438 192.652344 129.949219 192.675781 C 129.777344 192.554688 129.570312 192.425781 129.332031 192.3125 C 129.507812 192.234375 129.675781 192.160156 129.84375 192.09375 C 129.859375 192.113281 129.878906 192.132812 129.902344 192.15625 Z M 127.824219 193.640625 C 127.546875 193.578125 127.277344 193.535156 127.03125 193.507812 C 127.269531 193.363281 127.507812 193.226562 127.738281 193.097656 C 127.878906 193.21875 128.039062 193.335938 128.210938 193.445312 C 128.09375 193.511719 127.976562 193.578125 127.855469 193.652344 C 127.84375 193.648438 127.835938 193.644531 127.824219 193.640625 Z M 126.460938 194.605469 C 126.199219 194.519531 125.945312 194.449219 125.703125 194.394531 C 125.925781 194.230469 126.144531 194.078125 126.363281 193.929688 C 126.539062 194.03125 126.742188 194.136719 126.96875 194.230469 C 126.796875 194.355469 126.632812 194.480469 126.472656 194.609375 C 126.46875 194.609375 126.464844 194.605469 126.460938 194.605469 Z M 124.558594 195.320312 C 124.726562 195.175781 124.894531 195.03125 125.0625 194.890625 C 125.277344 195.007812 125.515625 195.125 125.773438 195.230469 C 125.675781 195.324219 125.582031 195.417969 125.488281 195.511719 C 125.15625 195.425781 124.839844 195.367188 124.558594 195.320312 Z M 124.882812 196.183594 C 124.761719 196.332031 124.652344 196.472656 124.558594 196.597656 C 124.40625 196.539062 124.25 196.484375 124.085938 196.433594 C 123.910156 196.378906 123.742188 196.328125 123.570312 196.28125 C 123.746094 196.09375 123.921875 195.914062 124.105469 195.742188 C 124.328125 195.878906 124.601562 196.023438 124.910156 196.15625 C 124.902344 196.164062 124.890625 196.175781 124.882812 196.183594 Z M 123.773438 197.867188 C 123.660156 197.980469 123.542969 198.097656 123.421875 198.21875 C 123.375 198.203125 123.332031 198.191406 123.285156 198.175781 C 122.921875 198.074219 122.574219 198.003906 122.257812 197.953125 C 122.5 197.589844 122.757812 197.242188 123.027344 196.910156 C 123.285156 197.023438 123.5625 197.132812 123.855469 197.226562 C 124.019531 197.277344 124.179688 197.324219 124.339844 197.363281 C 124.160156 197.507812 123.964844 197.671875 123.773438 197.867188 Z M 124.398438 200.351562 C 124.355469 200.375 124.316406 200.398438 124.273438 200.429688 C 124.082031 200.542969 123.847656 200.722656 123.597656 200.972656 C 123.3125 200.839844 122.980469 200.703125 122.613281 200.582031 C 122.6875 200.425781 122.761719 200.277344 122.835938 200.128906 C 123.433594 200.296875 123.996094 200.347656 124.398438 200.351562 Z M 122.714844 202.183594 C 122.539062 202.136719 122.359375 202.089844 122.171875 202.046875 C 122.121094 202.03125 122.070312 202.023438 122.019531 202.011719 C 122.105469 201.773438 122.195312 201.542969 122.289062 201.316406 C 122.597656 201.386719 122.894531 201.433594 123.167969 201.464844 C 123.007812 201.675781 122.855469 201.914062 122.714844 202.183594 Z M 121.003906 202.449219 C 120.976562 202.550781 120.945312 202.652344 120.917969 202.753906 C 120.703125 202.734375 120.507812 202.722656 120.339844 202.714844 C 120.375 202.503906 120.417969 202.289062 120.46875 202.078125 C 120.507812 202.113281 120.550781 202.148438 120.601562 202.183594 C 120.714844 202.269531 120.855469 202.359375 121.003906 202.449219 Z M 122.375 202.945312 C 122.367188 202.964844 122.359375 202.992188 122.355469 203.015625 C 122.242188 202.984375 122.128906 202.957031 122.011719 202.929688 C 121.917969 202.910156 121.824219 202.890625 121.734375 202.871094 C 121.742188 202.84375 121.753906 202.8125 121.761719 202.78125 C 121.84375 202.804688 121.921875 202.832031 122.003906 202.851562 C 122.136719 202.882812 122.261719 202.898438 122.386719 202.914062 C 122.382812 202.925781 122.378906 202.933594 122.375 202.945312 Z M 122.066406 204.375 C 122.042969 204.367188 122.019531 204.359375 121.996094 204.351562 C 121.792969 204.292969 121.597656 204.246094 121.40625 204.203125 C 121.441406 204.023438 121.480469 203.839844 121.527344 203.652344 C 121.628906 203.683594 121.738281 203.714844 121.847656 203.738281 C 121.949219 203.761719 122.050781 203.78125 122.152344 203.796875 C 122.117188 203.984375 122.085938 204.179688 122.066406 204.375 Z M 122.035156 205.238281 C 122.042969 205.433594 122.058594 205.628906 122.082031 205.820312 C 121.761719 205.722656 121.460938 205.644531 121.1875 205.578125 C 121.207031 205.382812 121.238281 205.183594 121.261719 204.976562 C 121.429688 205.039062 121.605469 205.097656 121.785156 205.148438 C 121.871094 205.175781 121.953125 205.191406 122.035156 205.210938 C 122.035156 205.21875 122.035156 205.226562 122.035156 205.238281 Z M 123.132812 209.085938 C 122.550781 208.917969 122.027344 208.785156 121.628906 208.691406 C 121.457031 208.648438 121.308594 208.617188 121.1875 208.589844 C 121.164062 208.417969 121.140625 208.210938 121.132812 207.964844 C 121.132812 207.882812 121.125 207.796875 121.121094 207.710938 C 121.453125 207.898438 121.84375 208.074219 122.28125 208.203125 C 122.445312 208.253906 122.613281 208.289062 122.773438 208.324219 C 122.894531 208.601562 123.015625 208.855469 123.132812 209.085938 Z M 121.105469 207.027344 C 121.109375 206.78125 121.113281 206.515625 121.132812 206.238281 C 121.457031 206.417969 121.828125 206.59375 122.246094 206.730469 C 122.300781 206.960938 122.363281 207.179688 122.429688 207.386719 C 121.945312 207.246094 121.496094 207.128906 121.105469 207.027344 Z M 120.75 207.480469 C 120.773438 207.605469 120.804688 207.722656 120.832031 207.835938 C 120.78125 207.707031 120.734375 207.574219 120.6875 207.441406 C 120.707031 207.457031 120.726562 207.46875 120.75 207.480469 Z M 120.261719 205.652344 C 120.332031 205.710938 120.414062 205.773438 120.503906 205.835938 C 120.519531 205.851562 120.542969 205.863281 120.5625 205.878906 C 120.566406 205.972656 120.574219 206.0625 120.578125 206.152344 C 120.585938 206.425781 120.621094 206.675781 120.65625 206.914062 C 120.648438 206.914062 120.636719 206.910156 120.628906 206.910156 C 120.589844 206.898438 120.550781 206.890625 120.511719 206.878906 C 120.402344 206.484375 120.3125 206.078125 120.261719 205.652344 Z M 120.570312 204.945312 C 120.566406 205.109375 120.5625 205.269531 120.554688 205.429688 C 120.4375 205.40625 120.328125 205.382812 120.234375 205.363281 C 120.207031 205.078125 120.191406 204.789062 120.191406 204.492188 C 120.3125 204.558594 120.449219 204.625 120.589844 204.691406 C 120.585938 204.777344 120.574219 204.863281 120.570312 204.945312 Z M 119.402344 204.019531 C 119.402344 204.089844 119.398438 204.160156 119.398438 204.230469 C 119.40625 205.34375 119.585938 206.417969 119.933594 207.382812 C 120.625 209.320312 121.871094 210.742188 123.070312 211.652344 C 123.679688 212.105469 124.289062 212.425781 124.832031 212.667969 C 125.113281 212.769531 125.371094 212.875 125.613281 212.945312 C 125.863281 213.003906 126.085938 213.078125 126.289062 213.109375 C 126.496094 213.140625 126.679688 213.167969 126.835938 213.195312 C 126.996094 213.210938 127.132812 213.214844 127.242188 213.222656 C 127.457031 213.234375 127.570312 213.238281 127.570312 213.238281 C 127.570312 213.238281 127.457031 213.21875 127.238281 213.183594 C 127.128906 213.167969 126.996094 213.152344 126.839844 213.117188 C 126.683594 213.078125 126.503906 213.03125 126.300781 212.980469 C 126.101562 212.925781 125.886719 212.835938 125.648438 212.753906 C 125.417969 212.660156 125.167969 212.542969 124.90625 212.414062 C 124.390625 212.136719 123.835938 211.769531 123.28125 211.292969 C 122.621094 210.707031 121.960938 209.945312 121.421875 209.027344 C 121.441406 209.042969 121.460938 209.058594 121.480469 209.074219 C 121.886719 209.378906 122.484375 209.746094 123.214844 209.972656 C 123.375 210.019531 123.53125 210.058594 123.6875 210.089844 C 123.699219 210.113281 123.714844 210.136719 123.726562 210.15625 C 123.875 210.390625 123.957031 210.523438 123.957031 210.523438 C 123.957031 210.523438 123.914062 210.378906 123.84375 210.121094 C 124.34375 210.210938 124.808594 210.230469 125.171875 210.214844 C 125.683594 210.191406 126.007812 210.117188 126.007812 210.117188 C 126.007812 210.117188 125.714844 209.988281 125.246094 209.808594 C 124.816406 209.644531 124.234375 209.433594 123.597656 209.230469 C 123.574219 209.136719 123.546875 209.039062 123.519531 208.9375 C 123.472656 208.773438 123.425781 208.59375 123.378906 208.40625 C 123.722656 208.4375 124.035156 208.433594 124.300781 208.414062 C 124.832031 208.375 125.160156 208.285156 125.160156 208.285156 C 125.160156 208.285156 124.851562 208.171875 124.363281 208.003906 C 124.039062 207.898438 123.632812 207.761719 123.191406 207.621094 C 123.140625 207.398438 123.09375 207.164062 123.050781 206.925781 C 123.492188 207.003906 123.90625 207.035156 124.234375 207.035156 C 124.757812 207.03125 125.09375 206.972656 125.09375 206.972656 C 125.09375 206.972656 124.796875 206.828125 124.328125 206.632812 C 123.953125 206.472656 123.46875 206.28125 122.929688 206.089844 C 122.902344 205.859375 122.882812 205.621094 122.867188 205.378906 C 123.15625 205.421875 123.425781 205.449219 123.652344 205.460938 C 124.152344 205.496094 124.480469 205.476562 124.480469 205.476562 C 124.480469 205.476562 124.21875 205.300781 123.773438 205.070312 C 123.523438 204.9375 123.207031 204.789062 122.855469 204.648438 C 122.863281 204.382812 122.886719 204.121094 122.917969 203.867188 C 123.707031 203.890625 124.285156 203.761719 124.285156 203.761719 C 124.285156 203.761719 123.78125 203.484375 123.027344 203.222656 C 123.050781 203.121094 123.078125 203.023438 123.101562 202.925781 C 123.273438 202.910156 123.4375 202.890625 123.574219 202.863281 C 123.984375 202.78125 124.230469 202.667969 124.230469 202.667969 C 124.230469 202.667969 123.992188 202.574219 123.617188 202.453125 C 123.515625 202.417969 123.398438 202.382812 123.28125 202.347656 C 123.390625 202.035156 123.515625 201.753906 123.652344 201.507812 C 123.699219 201.511719 123.753906 201.515625 123.796875 201.519531 C 124.296875 201.542969 124.625 201.519531 124.625 201.519531 C 124.625 201.519531 124.351562 201.339844 123.898438 201.113281 C 124.0625 200.871094 124.222656 200.667969 124.355469 200.527344 C 124.417969 200.453125 124.472656 200.402344 124.523438 200.355469 C 124.816406 200.355469 124.996094 200.335938 124.996094 200.335938 C 124.996094 200.335938 124.261719 199.824219 123.230469 199.414062 C 123.300781 199.292969 123.371094 199.175781 123.449219 199.066406 C 124.582031 199.296875 125.558594 199.136719 125.558594 199.136719 C 125.558594 199.136719 124.875 198.726562 123.910156 198.378906 C 123.972656 198.296875 124.035156 198.210938 124.09375 198.128906 C 124.273438 197.867188 124.46875 197.660156 124.632812 197.460938 C 124.636719 197.453125 124.644531 197.449219 124.648438 197.441406 C 125.933594 197.726562 126.972656 197.6875 126.972656 197.6875 C 126.972656 197.6875 126.25 197.269531 125.199219 196.839844 C 125.367188 196.664062 125.460938 196.5625 125.460938 196.5625 C 125.460938 196.5625 125.335938 196.648438 125.101562 196.800781 C 125.019531 196.769531 124.9375 196.738281 124.855469 196.707031 C 124.957031 196.632812 125.066406 196.550781 125.1875 196.464844 C 125.246094 196.421875 125.3125 196.375 125.375 196.328125 C 125.429688 196.347656 125.476562 196.363281 125.53125 196.378906 C 126.8125 196.746094 128.011719 196.554688 128.011719 196.554688 C 128.011719 196.554688 127.261719 196.097656 126.222656 195.734375 C 126.335938 195.65625 126.453125 195.574219 126.570312 195.492188 C 127.808594 195.8125 128.890625 195.707031 128.890625 195.707031 C 128.890625 195.707031 128.273438 195.320312 127.371094 194.941406 C 127.492188 194.863281 127.613281 194.78125 127.734375 194.699219 C 127.828125 194.636719 127.917969 194.574219 128.007812 194.511719 C 129.011719 194.65625 129.859375 194.425781 129.859375 194.425781 C 129.859375 194.425781 129.453125 194.191406 128.839844 193.957031 C 128.90625 193.910156 128.96875 193.871094 129.035156 193.828125 C 129.792969 194.070312 130.460938 194.035156 130.460938 194.035156 C 130.460938 194.035156 130.167969 193.738281 129.695312 193.390625 C 129.816406 193.3125 129.933594 193.238281 130.046875 193.167969 C 130.308594 193.152344 130.480469 193.113281 130.480469 193.113281 C 130.480469 193.113281 130.425781 193.058594 130.335938 192.980469 C 130.34375 192.980469 130.347656 192.976562 130.351562 192.972656 C 130.480469 192.894531 130.597656 192.820312 130.707031 192.75 C 130.761719 192.78125 130.816406 192.8125 130.878906 192.839844 C 131.300781 193.027344 131.714844 193.089844 132.015625 193.101562 C 132.316406 193.113281 132.503906 193.078125 132.503906 193.078125 C 132.503906 193.078125 132.363281 192.910156 132.128906 192.703125 C 131.898438 192.5 131.585938 192.253906 131.203125 192.082031 C 130.945312 191.964844 130.6875 191.898438 130.449219 191.855469 C 130.632812 191.785156 130.808594 191.71875 130.976562 191.660156 C 131.125 191.785156 131.300781 191.894531 131.507812 191.976562 C 131.9375 192.136719 132.375 192.113281 132.679688 192.035156 C 132.988281 191.957031 133.171875 191.84375 133.171875 191.84375 C 133.171875 191.84375 133.003906 191.75 132.75 191.625 C 132.554688 191.535156 132.316406 191.417969 132.050781 191.304688 C 132.289062 191.234375 132.488281 191.175781 132.636719 191.132812 C 132.6875 191.121094 132.730469 191.109375 132.769531 191.097656 C 132.890625 191.238281 133.035156 191.386719 133.21875 191.472656 C 133.433594 191.574219 133.683594 191.582031 133.902344 191.589844 C 134.117188 191.589844 134.292969 191.578125 134.292969 191.578125 C 134.292969 191.578125 134.257812 191.441406 134.148438 191.257812 C 134.039062 191.078125 133.84375 190.855469 133.5625 190.722656 C 133.472656 190.679688 133.386719 190.65625 133.296875 190.632812 C 133.382812 190.613281 133.464844 190.589844 133.546875 190.570312 C 133.792969 190.515625 134.035156 190.460938 134.261719 190.410156 C 134.71875 190.296875 135.140625 190.242188 135.511719 190.179688 C 135.695312 190.148438 135.867188 190.121094 136.027344 190.09375 C 136.1875 190.074219 136.335938 190.058594 136.464844 190.046875 C 136.996094 189.984375 137.289062 189.949219 137.289062 189.949219 C 137.289062 189.949219 136.988281 189.9375 136.449219 189.917969 C 136.316406 189.914062 136.164062 189.90625 136 189.902344 C 135.835938 189.90625 135.660156 189.914062 135.46875 189.921875 C 135.082031 189.9375 134.644531 189.945312 134.167969 190.007812 C 133.929688 190.035156 133.675781 190.066406 133.414062 190.09375 C 133.15625 190.140625 132.886719 190.1875 132.609375 190.238281 C 132.046875 190.324219 131.46875 190.5 130.851562 190.652344 C 130.710938 190.695312 130.5625 190.746094 130.417969 190.792969 C 130.386719 190.785156 130.363281 190.78125 130.363281 190.78125 C 130.363281 190.78125 130.367188 190.792969 130.375 190.808594 C 129.5 191.09375 128.597656 191.449219 127.691406 191.894531 C 127.601562 191.890625 127.550781 191.890625 127.550781 191.890625 C 127.550781 191.890625 127.5625 191.910156 127.585938 191.945312 C 127.410156 192.035156 127.230469 192.117188 127.054688 192.210938 C 125.976562 192.789062 125.019531 193.457031 124.175781 194.132812 C 124.007812 194.117188 123.910156 194.109375 123.910156 194.109375 C 123.910156 194.109375 123.960938 194.15625 124.054688 194.230469 C 123.9375 194.324219 123.816406 194.417969 123.707031 194.511719 C 123.472656 194.71875 123.246094 194.917969 123.027344 195.113281 C 122.8125 195.3125 122.621094 195.523438 122.425781 195.714844 C 122.34375 195.796875 122.265625 195.875 122.191406 195.957031 C 121.527344 195.832031 121.097656 195.796875 121.097656 195.796875 C 121.097656 195.796875 121.378906 196.023438 121.867188 196.316406 C 121.703125 196.5 121.554688 196.679688 121.410156 196.851562 C 121.101562 197.195312 120.871094 197.550781 120.652344 197.84375 C 120.429688 198.136719 120.261719 198.402344 120.128906 198.621094 C 119.859375 199.058594 119.710938 199.300781 119.710938 199.300781 C 119.710938 199.300781 119.898438 199.082031 120.238281 198.6875 C 120.324219 198.589844 120.414062 198.480469 120.519531 198.359375 C 120.621094 198.242188 120.746094 198.121094 120.871094 197.988281 C 120.902344 197.953125 120.9375 197.917969 120.96875 197.882812 C 121.023438 197.925781 121.113281 197.996094 121.238281 198.085938 C 121.089844 198.324219 120.949219 198.566406 120.816406 198.816406 C 120.613281 198.796875 120.496094 198.789062 120.496094 198.789062 C 120.496094 198.789062 120.578125 198.871094 120.722656 198.992188 C 120.535156 199.355469 120.363281 199.726562 120.210938 200.117188 C 119.773438 200.089844 119.5 200.101562 119.5 200.101562 C 119.5 200.101562 119.71875 200.257812 120.082031 200.464844 C 120.039062 200.585938 119.992188 200.707031 119.949219 200.828125 C 119.617188 201.878906 119.425781 202.953125 119.402344 203.996094 C 119.382812 203.996094 119.371094 203.996094 119.371094 203.996094 C 119.371094 203.996094 119.382812 204.007812 119.402344 204.019531 Z M 161.457031 201.894531 C 161.457031 201.894531 161.324219 201.914062 161.097656 201.925781 C 160.855469 202.304688 160.585938 202.683594 160.28125 203.058594 C 160.417969 203.132812 160.496094 203.175781 160.496094 203.175781 C 160.496094 203.175781 160.390625 203.171875 160.199219 203.152344 C 159.953125 203.449219 159.691406 203.738281 159.40625 204.023438 C 158.828125 204.609375 158.179688 205.164062 157.480469 205.699219 C 157.585938 205.75 157.648438 205.777344 157.648438 205.777344 C 157.648438 205.777344 157.550781 205.78125 157.382812 205.773438 C 157.019531 206.050781 156.640625 206.320312 156.253906 206.582031 C 156.273438 206.59375 156.285156 206.601562 156.285156 206.601562 C 156.285156 206.601562 156.265625 206.601562 156.226562 206.601562 C 155.816406 206.882812 155.390625 207.152344 154.953125 207.421875 C 154.417969 207.753906 153.878906 208.058594 153.34375 208.347656 C 153.726562 208.546875 153.957031 208.691406 153.957031 208.691406 C 153.957031 208.691406 153.449219 208.738281 152.734375 208.664062 C 152.589844 208.738281 152.445312 208.8125 152.300781 208.882812 C 152.605469 209.011719 152.785156 209.101562 152.785156 209.101562 C 152.785156 209.101562 152.347656 209.171875 151.695312 209.171875 C 151.285156 209.367188 150.878906 209.546875 150.476562 209.710938 C 150.820312 209.867188 151.027344 209.980469 151.027344 209.980469 C 151.027344 209.980469 150.449219 210.085938 149.65625 210.042969 C 149.207031 210.21875 148.765625 210.378906 148.339844 210.523438 C 148.632812 210.648438 148.804688 210.738281 148.804688 210.738281 C 148.804688 210.738281 148.183594 210.875 147.34375 210.847656 C 147.003906 210.953125 146.679688 211.046875 146.363281 211.132812 C 146.488281 211.242188 146.554688 211.320312 146.554688 211.320312 C 146.554688 211.320312 146.347656 211.363281 146.050781 211.382812 C 145.875 211.394531 145.664062 211.390625 145.445312 211.367188 C 144.332031 211.636719 143.414062 211.796875 142.765625 211.898438 C 142.0625 212 141.675781 212.042969 141.675781 212.042969 C 141.675781 212.042969 142.046875 211.949219 142.722656 211.777344 C 143.234375 211.636719 143.921875 211.445312 144.742188 211.183594 C 144.484375 211.070312 144.261719 210.921875 144.085938 210.785156 C 143.859375 210.609375 143.710938 210.457031 143.710938 210.457031 C 143.710938 210.457031 143.882812 210.40625 144.164062 210.382812 C 144.441406 210.355469 144.828125 210.367188 145.230469 210.488281 C 145.488281 210.566406 145.71875 210.679688 145.910156 210.796875 C 146 210.765625 146.09375 210.734375 146.1875 210.699219 C 144.902344 210.402344 143.992188 209.703125 143.992188 209.703125 C 143.992188 209.703125 145.097656 209.625 146.429688 209.910156 C 146.816406 209.996094 147.183594 210.101562 147.503906 210.207031 C 147.792969 210.097656 148.085938 209.976562 148.386719 209.851562 C 147.078125 209.507812 146.160156 208.765625 146.160156 208.765625 C 146.160156 208.765625 147.289062 208.726562 148.632812 209.0625 C 148.960938 209.148438 149.273438 209.242188 149.558594 209.34375 C 149.777344 209.246094 149.996094 209.144531 150.21875 209.039062 C 150.136719 209.023438 150.058594 209.007812 149.972656 208.988281 C 148.496094 208.652344 147.429688 207.878906 147.429688 207.878906 C 147.429688 207.878906 148.660156 207.84375 150.136719 208.179688 C 150.558594 208.277344 150.957031 208.394531 151.308594 208.507812 C 151.363281 208.480469 151.421875 208.453125 151.480469 208.421875 C 151.417969 208.40625 151.355469 208.386719 151.292969 208.367188 C 149.921875 207.917969 148.984375 207.070312 148.984375 207.070312 C 148.984375 207.070312 150.15625 207.128906 151.53125 207.578125 C 151.855469 207.683594 152.160156 207.800781 152.441406 207.917969 C 152.75 207.75 153.066406 207.578125 153.378906 207.394531 C 152.917969 207.363281 152.382812 207.28125 151.828125 207.109375 C 151.066406 206.875 150.429688 206.519531 149.992188 206.226562 C 149.554688 205.929688 149.304688 205.695312 149.304688 205.695312 C 149.304688 205.695312 150.5625 205.855469 152.050781 206.3125 C 152.816406 206.550781 153.507812 206.828125 153.996094 207.035156 C 154.144531 206.949219 154.292969 206.863281 154.441406 206.769531 C 154.585938 206.679688 154.734375 206.589844 154.878906 206.5 C 154.253906 206.410156 153.484375 206.238281 152.691406 205.925781 C 151.757812 205.558594 150.988281 205.074219 150.460938 204.683594 C 149.933594 204.289062 149.640625 203.992188 149.640625 203.992188 C 149.640625 203.992188 150.023438 204.101562 150.625 204.304688 C 151.230469 204.503906 152.058594 204.789062 152.96875 205.148438 C 153.878906 205.507812 154.703125 205.871094 155.308594 206.144531 C 155.332031 206.15625 155.355469 206.164062 155.382812 206.175781 C 155.648438 206.007812 155.910156 205.835938 156.164062 205.664062 C 155.519531 205.570312 154.726562 205.390625 153.910156 205.074219 C 152.9375 204.699219 152.132812 204.199219 151.582031 203.796875 C 151.027344 203.394531 150.71875 203.09375 150.71875 203.09375 C 150.71875 203.09375 151.113281 203.210938 151.742188 203.417969 C 152.371094 203.628906 153.234375 203.925781 154.183594 204.292969 C 155.132812 204.664062 155.992188 205.035156 156.625 205.3125 C 156.632812 205.316406 156.644531 205.320312 156.652344 205.328125 C 156.96875 205.105469 157.277344 204.878906 157.574219 204.652344 C 157.515625 204.644531 157.460938 204.640625 157.398438 204.632812 C 156.742188 204.546875 155.84375 204.355469 154.925781 203.964844 C 154.007812 203.570312 153.261719 203.058594 152.753906 202.648438 C 152.246094 202.234375 151.972656 201.929688 151.972656 201.929688 C 151.972656 201.929688 152.34375 202.054688 152.933594 202.277344 C 153.527344 202.5 154.335938 202.816406 155.226562 203.195312 C 156.117188 203.578125 156.925781 203.957031 157.519531 204.238281 C 157.652344 204.300781 157.773438 204.359375 157.886719 204.414062 C 158.085938 204.253906 158.28125 204.089844 158.46875 203.925781 C 158.375 203.917969 158.277344 203.910156 158.171875 203.894531 C 157.46875 203.8125 156.5 203.613281 155.519531 203.1875 C 154.539062 202.761719 153.742188 202.203125 153.210938 201.753906 C 152.675781 201.300781 152.394531 200.96875 152.394531 200.96875 C 152.394531 200.96875 152.78125 201.125 153.402344 201.386719 C 154.015625 201.648438 154.867188 202.011719 155.824219 202.421875 C 157.015625 202.945312 158.09375 203.417969 158.730469 203.699219 C 158.773438 203.65625 158.824219 203.617188 158.867188 203.578125 C 159.058594 203.402344 159.238281 203.226562 159.417969 203.046875 C 159.402344 203.046875 159.390625 203.042969 159.375 203.042969 C 158.695312 202.925781 157.769531 202.703125 156.820312 202.304688 C 155.871094 201.902344 155.078125 201.402344 154.53125 201 C 153.984375 200.601562 153.675781 200.304688 153.675781 200.304688 C 153.675781 200.304688 155.242188 200.746094 157.113281 201.53125 C 158.15625 201.972656 159.082031 202.433594 159.703125 202.753906 C 159.957031 202.480469 160.1875 202.210938 160.402344 201.933594 C 159.789062 201.914062 158.953125 201.796875 158.101562 201.472656 C 157.230469 201.136719 156.527344 200.652344 156.066406 200.261719 C 155.601562 199.863281 155.359375 199.566406 155.359375 199.566406 C 155.359375 199.566406 155.703125 199.6875 156.25 199.890625 C 156.789062 200.09375 157.535156 200.378906 158.371094 200.691406 C 159.273438 201.042969 160.097656 201.363281 160.667969 201.585938 C 160.925781 201.234375 161.152344 200.878906 161.351562 200.53125 C 161.285156 200.554688 161.214844 200.578125 161.136719 200.601562 C 160.773438 200.707031 160.242188 200.769531 159.695312 200.621094 C 159.148438 200.472656 158.726562 200.152344 158.472656 199.878906 C 158.214844 199.605469 158.105469 199.386719 158.105469 199.386719 C 158.105469 199.386719 158.320312 199.429688 158.648438 199.507812 C 158.976562 199.585938 159.417969 199.6875 159.898438 199.820312 C 160.378906 199.953125 160.820312 200.089844 161.15625 200.1875 C 161.28125 200.226562 161.390625 200.257812 161.476562 200.285156 C 161.515625 200.214844 161.554688 200.144531 161.585938 200.078125 C 161.660156 199.925781 161.730469 199.777344 161.792969 199.628906 C 161.789062 199.628906 161.253906 200.03125 160.746094 199.910156 C 160.238281 199.789062 159.949219 199.1875 159.949219 199.1875 C 159.949219 199.1875 160.421875 198.984375 160.929688 199.105469 C 161.4375 199.226562 161.792969 199.628906 161.792969 199.628906 C 162.207031 198.664062 162.378906 197.800781 162.4375 197.179688 C 162.472656 196.820312 162.476562 196.539062 162.472656 196.347656 C 162.464844 196.15625 162.460938 196.054688 162.460938 196.054688 C 162.460938 196.054688 162.476562 196.152344 162.507812 196.339844 C 162.535156 196.527344 162.5625 196.808594 162.570312 197.171875 C 162.578125 197.894531 162.464844 198.972656 161.980469 200.203125 C 161.785156 200.714844 161.515625 201.25 161.183594 201.789062 C 161.355469 201.855469 161.457031 201.894531 161.457031 201.894531 Z M 138.132812 214.105469 C 139.988281 213.757812 142.550781 213.183594 145.351562 212.3125 C 146.75 211.875 148.074219 211.410156 149.277344 210.953125 C 150.476562 210.484375 151.554688 210.046875 152.449219 209.636719 C 152.902344 209.441406 153.300781 209.246094 153.65625 209.078125 C 154.015625 208.914062 154.320312 208.769531 154.566406 208.640625 C 155.0625 208.394531 155.339844 208.257812 155.339844 208.257812 C 155.339844 208.257812 155.089844 208.433594 154.640625 208.75 C 154.414062 208.90625 154.132812 209.09375 153.800781 209.296875 C 153.46875 209.507812 153.09375 209.746094 152.664062 209.988281 C 151.820312 210.488281 150.777344 211.03125 149.601562 211.574219 C 148.417969 212.105469 147.089844 212.632812 145.667969 213.078125 C 144.242188 213.523438 142.859375 213.839844 141.597656 214.074219 C 140.335938 214.300781 139.191406 214.4375 138.226562 214.507812 C 137.75 214.554688 137.3125 214.566406 136.929688 214.585938 C 136.550781 214.605469 136.21875 214.609375 135.953125 214.609375 C 135.417969 214.609375 135.121094 214.605469 135.121094 214.605469 C 135.121094 214.605469 135.40625 214.5625 135.925781 214.484375 C 136.449219 214.40625 137.199219 214.277344 138.132812 214.105469 Z M 114.261719 208.136719 C 114.261719 208.136719 114.976562 208.210938 115.683594 208.644531 C 116.386719 209.078125 116.8125 209.707031 116.8125 209.707031 C 116.8125 209.707031 115.964844 209.789062 115.257812 209.355469 C 114.554688 208.921875 114.261719 208.136719 114.261719 208.136719 Z M 26.304688 230.964844 C 25.910156 231.046875 25.535156 230.929688 25.300781 230.792969 C 25.058594 230.65625 24.941406 230.503906 24.941406 230.503906 C 24.941406 230.503906 25.089844 230.449219 25.308594 230.378906 C 25.527344 230.3125 25.8125 230.222656 26.125 230.15625 C 26.441406 230.09375 26.742188 230.0625 26.980469 230.03125 C 27.214844 230.003906 27.382812 229.992188 27.382812 229.992188 C 27.382812 229.992188 27.328125 230.175781 27.164062 230.402344 C 26.996094 230.625 26.695312 230.878906 26.304688 230.964844 Z M 94.730469 213.199219 C 94.730469 213.199219 93.777344 213.957031 92.46875 214.269531 C 91.160156 214.578125 90 214.328125 90 214.328125 C 90 214.328125 90.953125 213.78125 92.261719 213.46875 C 93.566406 213.15625 94.730469 213.199219 94.730469 213.199219 Z M 105.941406 209.683594 C 110.074219 208.421875 113.59375 207.53125 113.59375 207.53125 C 113.59375 207.53125 112.792969 207.941406 111.472656 208.515625 C 110.152344 209.089844 108.308594 209.824219 106.234375 210.457031 C 104.160156 211.09375 102.253906 211.511719 100.863281 211.769531 C 99.476562 212.027344 98.609375 212.128906 98.609375 212.128906 C 98.609375 212.128906 101.808594 210.953125 105.941406 209.683594 Z M 149.257812 189.539062 C 148.675781 189.453125 148.195312 189.386719 147.863281 189.355469 C 147.53125 189.3125 147.347656 189.289062 147.347656 189.289062 C 147.347656 189.289062 147.527344 189.265625 147.851562 189.226562 C 148.179688 189.179688 148.65625 189.144531 149.25 189.125 C 150.433594 189.089844 152.105469 189.183594 153.910156 189.648438 C 154.808594 189.882812 155.648438 190.179688 156.394531 190.5 C 157.140625 190.832031 157.796875 191.160156 158.324219 191.484375 C 158.59375 191.632812 158.828125 191.789062 159.03125 191.925781 C 159.242188 192.058594 159.414062 192.179688 159.554688 192.28125 C 159.832031 192.488281 159.988281 192.601562 159.988281 192.601562 C 159.988281 192.601562 159.8125 192.527344 159.492188 192.398438 C 159.335938 192.328125 159.144531 192.246094 158.917969 192.160156 C 158.695312 192.070312 158.445312 191.960938 158.160156 191.859375 C 157.601562 191.640625 156.925781 191.410156 156.179688 191.164062 C 155.433594 190.925781 154.613281 190.6875 153.75 190.457031 C 152.015625 190.007812 150.429688 189.707031 149.257812 189.539062 Z M 29.714844 224.164062 Z M 29.714844 224.164062 C 29.71875 224.167969 29.71875 224.164062 29.714844 224.164062 Z M 34.125 223.164062 C 35.09375 222.292969 36.246094 221.808594 37.339844 221.515625 C 37.890625 221.371094 38.429688 221.269531 38.964844 221.199219 C 39.5 221.128906 40.039062 221.09375 40.574219 221.109375 C 41.636719 221.136719 42.703125 221.386719 43.5625 221.917969 C 44.414062 222.4375 45.054688 223.191406 45.363281 224.011719 C 45.519531 224.417969 45.582031 224.851562 45.578125 225.226562 C 45.582031 225.605469 45.53125 225.949219 45.460938 226.261719 C 45.328125 226.894531 45.089844 227.40625 44.832031 227.792969 C 44.570312 228.179688 44.261719 228.421875 44.027344 228.53125 C 43.914062 228.597656 43.820312 228.609375 43.761719 228.632812 C 43.703125 228.648438 43.671875 228.660156 43.671875 228.660156 C 43.667969 228.652344 43.789062 228.617188 43.988281 228.472656 C 44.1875 228.332031 44.429688 228.0625 44.601562 227.675781 C 44.773438 227.289062 44.910156 226.792969 44.941406 226.214844 C 44.976562 225.640625 44.933594 224.972656 44.625 224.382812 C 44.316406 223.792969 43.765625 223.273438 43.070312 222.9375 C 42.378906 222.597656 41.550781 222.464844 40.660156 222.503906 C 39.78125 222.539062 38.804688 222.730469 37.867188 223.007812 C 36.929688 223.292969 36.019531 223.703125 35.304688 224.324219 C 34.941406 224.636719 34.667969 224.972656 34.453125 225.359375 C 34.246094 225.746094 34.101562 226.164062 34.046875 226.582031 C 33.996094 227 34.015625 227.410156 34.132812 227.769531 C 34.253906 228.128906 34.449219 228.449219 34.722656 228.710938 C 35.273438 229.234375 36.085938 229.503906 36.867188 229.621094 C 37.652344 229.742188 38.429688 229.714844 39.140625 229.667969 C 40.558594 229.5625 41.695312 229.242188 42.46875 229 C 43.246094 228.773438 43.671875 228.660156 43.671875 228.660156 C 43.671875 228.660156 43.285156 228.863281 42.582031 229.234375 C 41.898438 229.601562 40.789062 230.144531 39.335938 230.472656 C 38.609375 230.632812 37.792969 230.769531 36.867188 230.75 C 36.40625 230.742188 35.921875 230.6875 35.421875 230.554688 C 34.921875 230.421875 34.398438 230.207031 33.925781 229.851562 C 33.453125 229.503906 33.035156 229.003906 32.785156 228.414062 C 32.523438 227.832031 32.429688 227.183594 32.46875 226.554688 C 32.503906 225.921875 32.671875 225.300781 32.953125 224.71875 C 33.222656 224.132812 33.65625 223.589844 34.125 223.164062 Z M 59.28125 226.480469 C 59.148438 226.441406 58.988281 226.398438 58.800781 226.347656 C 58.414062 226.242188 57.921875 226.109375 57.382812 225.964844 C 57.703125 225.863281 58.03125 225.757812 58.371094 225.644531 C 59.167969 225.78125 59.914062 225.757812 60.457031 225.691406 C 61.027344 225.625 61.378906 225.519531 61.378906 225.519531 C 61.378906 225.519531 61.03125 225.417969 60.488281 225.28125 C 60.320312 225.238281 60.121094 225.191406 59.914062 225.140625 C 61.023438 224.777344 62.214844 224.382812 63.460938 223.964844 C 63.679688 223.914062 63.800781 223.875 63.800781 223.875 C 63.800781 223.875 63.785156 223.867188 63.761719 223.863281 C 63.90625 223.816406 64.046875 223.769531 64.191406 223.71875 C 65.578125 223.25 66.910156 222.792969 68.148438 222.367188 C 68.539062 222.367188 68.894531 222.339844 69.191406 222.300781 C 69.777344 222.222656 70.136719 222.109375 70.136719 222.109375 C 70.136719 222.109375 69.855469 222.039062 69.398438 221.929688 C 69.90625 221.753906 70.394531 221.585938 70.859375 221.421875 C 71.230469 221.472656 71.585938 221.5 71.910156 221.515625 C 71.277344 221.730469 70.640625 221.941406 70.011719 222.160156 C 66.367188 223.429688 62.785156 224.882812 59.28125 226.480469 Z M 50.792969 230.476562 C 50.761719 230.445312 50.730469 230.417969 50.695312 230.382812 C 51.289062 230.109375 51.828125 229.847656 52.296875 229.621094 C 52.847656 229.347656 53.300781 229.117188 53.628906 228.949219 C 53.703125 228.976562 53.78125 229 53.863281 229.019531 C 52.839844 229.507812 51.816406 229.996094 50.792969 230.476562 Z M 30.8125 237.136719 C 30.703125 236.996094 30.589844 236.84375 30.46875 236.679688 C 31.089844 236.835938 31.886719 236.9375 32.757812 236.84375 C 33.714844 236.738281 34.550781 236.417969 35.144531 236.097656 C 35.246094 236.089844 35.347656 236.082031 35.460938 236.070312 C 36.546875 235.953125 38 235.714844 39.574219 235.25 C 38.417969 235.664062 37.253906 236.050781 36.074219 236.398438 C 34.347656 236.90625 32.578125 237.265625 30.8125 237.136719 Z M 25.019531 234.941406 C 25.105469 234.972656 25.199219 235.003906 25.300781 235.035156 C 25.605469 235.132812 25.976562 235.222656 26.390625 235.292969 C 26.542969 235.535156 26.71875 235.738281 26.894531 235.902344 C 26.722656 235.90625 26.566406 235.90625 26.417969 235.902344 C 25.921875 235.632812 25.453125 235.3125 25.019531 234.941406 Z M 26.308594 233.855469 C 26.28125 233.832031 26.257812 233.804688 26.234375 233.78125 C 26.394531 233.796875 26.554688 233.808594 26.71875 233.8125 C 26.832031 233.816406 26.949219 233.8125 27.058594 233.808594 C 27.179688 234.046875 27.324219 234.316406 27.496094 234.59375 C 27.300781 234.601562 27.113281 234.609375 26.929688 234.613281 C 26.71875 234.320312 26.496094 234.0625 26.308594 233.855469 Z M 28.921875 236.601562 C 29.011719 236.589844 29.101562 236.574219 29.195312 236.558594 C 29.234375 236.589844 29.253906 236.609375 29.253906 236.609375 C 29.253906 236.609375 29.253906 236.585938 29.246094 236.550781 C 29.324219 236.535156 29.402344 236.519531 29.476562 236.503906 C 29.664062 236.707031 29.847656 236.890625 30.03125 237.050781 C 29.390625 236.96875 28.757812 236.828125 28.140625 236.632812 C 28.390625 236.640625 28.652344 236.628906 28.921875 236.601562 Z M 28.058594 235.390625 C 28.183594 235.546875 28.308594 235.691406 28.429688 235.820312 C 28.132812 235.847656 27.847656 235.867188 27.578125 235.882812 C 27.519531 235.730469 27.453125 235.566406 27.371094 235.390625 C 27.59375 235.402344 27.824219 235.398438 28.058594 235.390625 Z M 30.261719 233.101562 C 30.476562 233.328125 30.785156 233.441406 31 233.464844 C 31.222656 233.492188 31.398438 233.46875 31.542969 233.4375 C 31.828125 233.375 32.078125 233.261719 32.285156 233.121094 C 32.324219 233.09375 32.351562 233.066406 32.386719 233.039062 C 32.371094 233.15625 32.367188 233.28125 32.375 233.417969 C 32.398438 233.710938 32.492188 234 32.652344 234.277344 C 32.820312 234.546875 33.054688 234.816406 33.410156 234.992188 C 33.757812 235.179688 34.222656 235.214844 34.589844 235.097656 C 34.785156 235.035156 34.953125 234.945312 35.09375 234.835938 C 35.171875 234.839844 35.703125 234.863281 36.523438 234.792969 C 37.414062 234.722656 38.648438 234.523438 39.945312 234.066406 C 40.605469 233.832031 41.214844 233.554688 41.753906 233.273438 C 41.851562 233.335938 41.949219 233.394531 42.046875 233.441406 C 41.808594 233.566406 41.601562 233.679688 41.425781 233.777344 C 40.949219 233.9375 40.460938 234.105469 39.953125 234.269531 C 38.523438 234.738281 37.207031 235.136719 36.128906 235.449219 C 36.207031 235.386719 36.246094 235.351562 36.246094 235.351562 C 36.246094 235.351562 36.144531 235.378906 35.957031 235.425781 C 35.773438 235.476562 35.503906 235.542969 35.175781 235.613281 C 34.519531 235.765625 33.625 235.921875 32.644531 236.023438 C 31.863281 236.109375 31.148438 236.148438 30.5625 236.160156 C 30.882812 236.023438 31.167969 235.871094 31.398438 235.726562 C 31.6875 235.546875 31.902344 235.378906 32.046875 235.25 C 32.191406 235.128906 32.265625 235.054688 32.265625 235.054688 C 32.265625 235.054688 32.167969 235.082031 31.988281 235.136719 C 31.8125 235.191406 31.554688 235.265625 31.238281 235.34375 C 30.828125 235.453125 30.316406 235.558594 29.746094 235.652344 C 29.644531 235.503906 29.542969 235.351562 29.441406 235.195312 C 30.046875 235.054688 30.582031 234.859375 30.992188 234.667969 C 31.335938 234.511719 31.601562 234.363281 31.78125 234.25 C 31.957031 234.136719 32.058594 234.074219 32.058594 234.074219 C 32.058594 234.074219 31.941406 234.09375 31.734375 234.128906 C 31.53125 234.167969 31.234375 234.21875 30.875 234.273438 C 30.359375 234.351562 29.710938 234.433594 28.992188 234.496094 C 28.796875 234.179688 28.609375 233.875 28.433594 233.582031 C 28.75 233.492188 29.03125 233.382812 29.269531 233.273438 C 29.574219 233.132812 29.808594 232.996094 29.964844 232.890625 C 30 232.867188 30.03125 232.847656 30.058594 232.828125 C 30.105469 232.917969 30.167969 233.007812 30.261719 233.101562 Z M 31.335938 231.550781 C 31.304688 231.289062 31.339844 230.964844 31.378906 230.679688 C 31.378906 230.675781 31.378906 230.671875 31.378906 230.667969 C 31.40625 230.644531 31.433594 230.613281 31.460938 230.589844 C 31.519531 230.523438 31.570312 230.457031 31.613281 230.394531 C 31.886719 230.851562 32.21875 231.25 32.585938 231.582031 C 32.527344 231.617188 32.464844 231.652344 32.398438 231.683594 C 32.164062 231.796875 31.890625 231.871094 31.636719 231.886719 C 31.5625 231.894531 31.488281 231.894531 31.417969 231.890625 C 31.417969 231.886719 31.414062 231.882812 31.414062 231.875 C 31.378906 231.789062 31.347656 231.679688 31.335938 231.550781 Z M 30.304688 229.773438 C 30.1875 229.671875 30.078125 229.507812 30.039062 229.414062 C 30.019531 229.367188 30.003906 229.375 29.980469 229.335938 C 29.960938 229.292969 29.949219 229.210938 29.980469 229.101562 C 29.992188 229.046875 30.015625 228.992188 30.042969 228.933594 C 30.410156 228.871094 30.699219 228.699219 30.890625 228.527344 C 30.898438 228.574219 30.90625 228.621094 30.914062 228.664062 C 31.003906 229.058594 31.132812 229.433594 31.292969 229.789062 C 31.292969 229.789062 31.292969 229.789062 31.289062 229.792969 C 31.238281 229.820312 31.179688 229.859375 31.117188 229.898438 C 31.070312 229.90625 31.023438 229.914062 30.976562 229.917969 C 30.722656 229.945312 30.449219 229.890625 30.304688 229.773438 Z M 29.667969 227.210938 C 29.65625 227.164062 29.640625 227.171875 29.625 227.132812 C 29.605469 227.089844 29.609375 227.003906 29.648438 226.910156 C 29.726562 226.710938 29.910156 226.503906 30.136719 226.347656 C 30.363281 226.1875 30.597656 226.070312 30.757812 225.980469 C 30.78125 225.96875 30.796875 225.957031 30.820312 225.949219 C 30.824219 225.945312 30.828125 225.945312 30.832031 225.941406 C 30.839844 225.9375 30.84375 225.933594 30.851562 225.929688 C 30.886719 225.910156 30.914062 225.894531 30.941406 225.878906 C 30.8125 226.410156 30.75 226.980469 30.773438 227.566406 C 30.597656 227.566406 30.339844 227.578125 30.03125 227.640625 C 30.003906 227.648438 29.980469 227.65625 29.953125 227.660156 C 29.917969 227.636719 29.886719 227.613281 29.863281 227.585938 C 29.765625 227.46875 29.691406 227.296875 29.667969 227.210938 Z M 35.140625 232.859375 C 35.144531 232.859375 35.152344 232.859375 35.15625 232.859375 C 35.101562 232.941406 35.046875 233.023438 34.984375 233.105469 C 34.816406 233.335938 34.601562 233.511719 34.398438 233.570312 C 34.300781 233.601562 34.21875 233.59375 34.191406 233.570312 C 34.160156 233.539062 34.179688 233.53125 34.140625 233.515625 C 34.0625 233.484375 33.859375 233.332031 33.742188 233.160156 C 33.609375 232.96875 33.523438 232.648438 33.480469 232.367188 C 33.472656 232.316406 33.464844 232.269531 33.460938 232.222656 C 34.039062 232.5625 34.625 232.761719 35.140625 232.859375 Z M 37.527344 232.921875 C 38.132812 232.957031 38.976562 232.929688 39.871094 232.703125 C 40.210938 232.617188 40.53125 232.507812 40.828125 232.390625 C 40.90625 232.496094 41.011719 232.625 41.144531 232.761719 C 40.667969 232.933594 40.164062 233.113281 39.640625 233.296875 C 38.375 233.742188 37.238281 234.128906 36.414062 234.398438 C 35.695312 234.632812 35.21875 234.789062 35.105469 234.824219 C 35.222656 234.734375 35.324219 234.632812 35.40625 234.53125 C 35.582031 234.300781 35.6875 234.0625 35.746094 233.832031 C 35.800781 233.605469 35.804688 233.410156 35.796875 233.234375 C 35.789062 233.121094 35.777344 233.023438 35.757812 232.933594 C 36.226562 232.960938 36.617188 232.917969 36.90625 232.859375 C 37.066406 232.882812 37.277344 232.90625 37.527344 232.921875 Z M 42.597656 232.140625 C 42.792969 232.09375 43.007812 232.039062 43.226562 231.980469 C 43.125 232.019531 43.019531 232.0625 42.902344 232.105469 C 42.632812 232.210938 42.320312 232.328125 41.988281 232.449219 C 41.914062 232.40625 41.832031 232.371094 41.753906 232.335938 C 41.988281 232.285156 42.269531 232.21875 42.597656 232.140625 Z M 46.632812 231.253906 C 46.003906 231.519531 45.414062 231.785156 44.863281 232.039062 C 44.792969 231.925781 44.710938 231.8125 44.617188 231.707031 C 44.589844 231.675781 44.5625 231.648438 44.535156 231.621094 C 45.101562 231.460938 45.703125 231.273438 46.332031 231.058594 C 46.351562 231.050781 46.375 231.042969 46.398438 231.039062 C 46.472656 231.109375 46.550781 231.179688 46.632812 231.253906 Z M 49.714844 228.226562 C 49.859375 228.363281 50.019531 228.492188 50.210938 228.605469 C 50.507812 228.777344 50.851562 228.917969 51.257812 228.96875 C 51.28125 228.972656 51.304688 228.96875 51.324219 228.972656 C 51.074219 229.011719 50.558594 229.101562 49.859375 229.246094 C 49.652344 229.289062 49.425781 229.339844 49.191406 229.394531 C 48.867188 229.257812 48.550781 229.160156 48.261719 229.089844 C 48.921875 228.753906 49.429688 228.425781 49.714844 228.226562 Z M 47.5 230.894531 C 47.457031 230.859375 47.410156 230.820312 47.363281 230.785156 C 47.335938 230.765625 47.308594 230.746094 47.277344 230.726562 C 47.832031 230.523438 48.355469 230.320312 48.828125 230.125 C 48.902344 230.164062 48.976562 230.203125 49.050781 230.238281 C 49.070312 230.25 49.09375 230.257812 49.113281 230.269531 C 48.59375 230.460938 48.050781 230.671875 47.5 230.894531 Z M 48.082031 231.539062 C 48.789062 231.242188 49.464844 230.949219 50.089844 230.664062 C 50.152344 230.6875 50.214844 230.707031 50.273438 230.722656 C 49.578125 231.050781 48.878906 231.371094 48.183594 231.691406 C 48.152344 231.640625 48.117188 231.589844 48.082031 231.539062 Z M 43.097656 232.46875 C 43.371094 232.285156 43.597656 232.121094 43.78125 231.980469 C 43.851562 232.074219 43.925781 232.171875 44.007812 232.265625 C 44.046875 232.308594 44.085938 232.347656 44.128906 232.386719 C 43.59375 232.644531 43.109375 232.886719 42.6875 233.105469 C 42.628906 233.023438 42.5625 232.941406 42.492188 232.859375 C 42.710938 232.726562 42.914062 232.59375 43.097656 232.46875 Z M 44.777344 233 C 44.796875 232.988281 44.816406 232.976562 44.835938 232.964844 C 44.914062 233.015625 44.984375 233.058594 45.042969 233.09375 C 44.316406 233.40625 43.585938 233.710938 42.851562 234.007812 C 43.589844 233.660156 44.242188 233.3125 44.777344 233 Z M 47.457031 232.027344 C 46.71875 232.363281 45.980469 232.6875 45.234375 233.011719 C 45.222656 232.941406 45.203125 232.855469 45.175781 232.761719 C 45.289062 232.695312 45.394531 232.628906 45.496094 232.566406 C 46.109375 232.335938 46.757812 232.085938 47.429688 231.8125 C 47.507812 231.855469 47.582031 231.894531 47.65625 231.933594 C 47.589844 231.964844 47.523438 231.996094 47.457031 232.027344 Z M 52.128906 229.242188 C 51.542969 229.425781 50.855469 229.652344 50.105469 229.914062 C 50.011719 229.847656 49.914062 229.78125 49.808594 229.714844 C 49.871094 229.691406 49.933594 229.664062 49.992188 229.636719 C 50.746094 229.308594 51.261719 229.0625 51.433594 228.976562 C 51.796875 228.996094 52.21875 228.921875 52.570312 228.734375 C 52.664062 228.683594 52.753906 228.625 52.839844 228.566406 C 52.953125 228.640625 53.148438 228.753906 53.398438 228.859375 C 53.058594 228.957031 52.628906 229.085938 52.128906 229.242188 Z M 55.167969 228.402344 C 54.960938 228.355469 54.730469 228.320312 54.488281 228.304688 C 53.886719 228.257812 53.355469 228.335938 53.035156 228.40625 C 53.355469 228.125 53.582031 227.773438 53.710938 227.402344 C 53.765625 227.445312 53.820312 227.484375 53.882812 227.527344 C 54.269531 227.796875 54.855469 228.09375 55.558594 228.214844 C 55.429688 228.277344 55.300781 228.339844 55.167969 228.402344 Z M 58.570312 226.804688 C 58.003906 227.066406 57.445312 227.332031 56.882812 227.59375 C 56.53125 227.535156 56.136719 227.472656 55.714844 227.40625 C 55.042969 227.296875 54.445312 227.203125 54.007812 227.136719 C 53.941406 227.125 53.882812 227.113281 53.824219 227.105469 C 54.375 226.933594 55.105469 226.703125 55.972656 226.421875 C 56.167969 226.492188 56.371094 226.558594 56.585938 226.613281 C 57.359375 226.808594 58.101562 226.816406 58.652344 226.769531 C 58.625 226.78125 58.597656 226.792969 58.570312 226.804688 Z M 47.121094 228.195312 C 47.355469 228.191406 47.625 228.152344 47.878906 228.027344 C 48.53125 227.714844 48.84375 226.996094 48.84375 226.996094 C 48.84375 226.996094 48.339844 226.980469 47.78125 227.179688 C 47.789062 227.167969 47.792969 227.15625 47.800781 227.144531 C 48.160156 226.4375 48.414062 225.570312 48.445312 224.640625 C 48.507812 224.75 48.585938 224.863281 48.695312 224.976562 C 48.839844 225.117188 49.03125 225.257812 49.277344 225.347656 C 49.535156 225.441406 49.839844 225.472656 50.152344 225.417969 C 50.46875 225.359375 50.804688 225.21875 51.085938 224.9375 C 51.226562 224.800781 51.347656 224.632812 51.441406 224.429688 C 51.535156 224.226562 51.582031 224.003906 51.589844 223.785156 C 51.597656 223.460938 51.519531 223.148438 51.367188 222.878906 C 51.398438 222.84375 51.433594 222.804688 51.484375 222.757812 C 51.621094 222.628906 51.84375 222.46875 52.132812 222.359375 C 52.417969 222.25 52.78125 222.195312 53.117188 222.246094 C 53.285156 222.273438 53.441406 222.324219 53.574219 222.398438 C 53.707031 222.460938 53.8125 222.578125 53.832031 222.609375 C 53.839844 222.628906 53.828125 222.605469 53.832031 222.578125 C 53.839844 222.546875 53.851562 222.570312 53.832031 222.625 C 53.78125 222.757812 53.691406 222.910156 53.585938 223.035156 C 53.375 223.296875 53.078125 223.488281 52.800781 223.605469 C 52.523438 223.722656 52.261719 223.761719 52.078125 223.773438 C 51.984375 223.777344 51.910156 223.777344 51.859375 223.773438 C 51.808594 223.769531 51.78125 223.769531 51.78125 223.769531 C 51.78125 223.769531 51.800781 223.792969 51.835938 223.839844 C 51.871094 223.882812 51.929688 223.949219 52.015625 224.019531 C 52.1875 224.164062 52.488281 224.355469 52.929688 224.421875 C 53.363281 224.484375 53.949219 224.433594 54.511719 224.078125 C 54.726562 223.9375 54.929688 223.761719 55.105469 223.527344 C 55.722656 223.480469 56.816406 223.363281 58.09375 223.082031 C 58.214844 223.15625 58.363281 223.246094 58.542969 223.339844 C 58.671875 223.410156 58.820312 223.484375 58.984375 223.554688 C 58.058594 223.894531 57.226562 224.226562 56.527344 224.523438 C 56.453125 224.511719 56.375 224.5 56.308594 224.492188 C 55.769531 224.429688 55.433594 224.40625 55.433594 224.40625 C 55.433594 224.40625 55.628906 224.554688 55.972656 224.761719 C 55.449219 224.988281 55.023438 225.183594 54.71875 225.324219 C 54.222656 225.214844 53.910156 225.15625 53.910156 225.15625 C 53.910156 225.15625 54.054688 225.300781 54.328125 225.511719 C 54.21875 225.566406 54.15625 225.59375 54.15625 225.59375 C 54.15625 225.59375 54.234375 225.578125 54.375 225.550781 C 54.449219 225.605469 54.527344 225.664062 54.617188 225.722656 C 54.84375 225.878906 55.128906 226.046875 55.453125 226.203125 C 54.808594 226.480469 54.261719 226.726562 53.824219 226.921875 C 53.835938 226.835938 53.84375 226.753906 53.839844 226.667969 C 53.84375 226.273438 53.722656 225.910156 53.550781 225.640625 C 53.382812 225.363281 53.171875 225.164062 52.960938 225.027344 C 52.539062 224.746094 52.140625 224.710938 51.898438 224.734375 C 51.773438 224.746094 51.683594 224.769531 51.621094 224.792969 C 51.566406 224.8125 51.535156 224.824219 51.535156 224.824219 C 51.535156 224.824219 51.5625 224.835938 51.613281 224.859375 C 51.664062 224.882812 51.738281 224.921875 51.824219 224.980469 C 51.992188 225.09375 52.207031 225.292969 52.355469 225.582031 C 52.503906 225.871094 52.566406 226.230469 52.460938 226.515625 C 52.367188 226.8125 52.101562 227.128906 51.796875 227.277344 C 51.644531 227.351562 51.511719 227.382812 51.316406 227.390625 C 51.128906 227.394531 50.917969 227.363281 50.726562 227.3125 C 50.335938 227.210938 49.988281 227.007812 49.722656 226.789062 C 49.453125 226.570312 49.265625 226.339844 49.148438 226.164062 C 49.089844 226.078125 49.046875 226.007812 49.019531 225.957031 C 48.988281 225.910156 48.972656 225.882812 48.972656 225.882812 C 48.972656 225.882812 48.964844 225.914062 48.949219 225.976562 C 48.933594 226.039062 48.917969 226.128906 48.90625 226.25 C 48.882812 226.496094 48.902344 226.871094 49.082031 227.308594 C 49.191406 227.566406 49.355469 227.84375 49.597656 228.105469 C 49.023438 228.210938 47.863281 228.460938 46.609375 228.902344 C 46.523438 228.9375 46.433594 228.96875 46.347656 229 C 46.609375 228.773438 46.871094 228.507812 47.121094 228.195312 Z M 47.917969 222.15625 C 48.089844 222.332031 48.230469 222.464844 48.316406 222.613281 C 48.375 222.710938 48.40625 222.804688 48.421875 222.867188 C 48.4375 222.9375 48.449219 222.972656 48.449219 222.972656 C 48.449219 222.972656 48.464844 222.941406 48.492188 222.878906 C 48.523438 222.816406 48.554688 222.714844 48.570312 222.582031 C 48.609375 222.316406 48.53125 221.953125 48.480469 221.628906 C 48.453125 221.472656 48.445312 221.316406 48.484375 221.246094 C 48.519531 221.175781 48.554688 221.1875 48.625 221.136719 C 48.695312 221.09375 48.828125 221.019531 48.996094 220.957031 C 49.167969 220.886719 49.359375 220.828125 49.492188 220.804688 C 49.636719 220.785156 49.671875 220.800781 49.664062 220.777344 C 49.660156 220.746094 49.71875 220.769531 49.765625 220.84375 C 49.863281 220.957031 49.863281 221.210938 49.765625 221.421875 C 49.675781 221.632812 49.527344 221.78125 49.402344 221.863281 C 49.34375 221.902344 49.289062 221.929688 49.25 221.945312 C 49.210938 221.960938 49.1875 221.972656 49.1875 221.972656 C 49.1875 221.972656 49.210938 221.984375 49.25 222.015625 C 49.292969 222.046875 49.355469 222.082031 49.457031 222.113281 C 49.492188 222.125 49.53125 222.132812 49.574219 222.140625 C 49.148438 222.273438 48.871094 222.5625 48.71875 222.808594 C 48.507812 223.160156 48.472656 223.464844 48.453125 223.667969 C 48.4375 223.875 48.445312 223.992188 48.445312 223.992188 C 48.445312 223.992188 48.527344 223.925781 48.671875 223.804688 C 48.8125 223.691406 49.019531 223.53125 49.257812 223.4375 C 49.375 223.386719 49.484375 223.367188 49.601562 223.367188 C 49.714844 223.367188 49.816406 223.394531 49.867188 223.4375 C 49.921875 223.484375 49.902344 223.503906 49.917969 223.550781 C 49.933594 223.597656 49.945312 223.675781 49.941406 223.738281 C 49.941406 223.769531 49.9375 223.792969 49.933594 223.8125 C 49.925781 223.835938 49.914062 223.867188 49.898438 223.898438 C 49.859375 223.964844 49.785156 224.042969 49.695312 224.101562 C 49.605469 224.160156 49.507812 224.207031 49.40625 224.226562 C 49.292969 224.25 49.171875 224.25 49.054688 224.230469 C 48.8125 224.199219 48.597656 224.101562 48.449219 224.027344 C 48.441406 224.023438 48.433594 224.015625 48.425781 224.011719 C 48.414062 223.890625 48.402344 223.769531 48.386719 223.644531 C 48.308594 223.125 48.144531 222.621094 47.917969 222.15625 Z M 58.558594 221.445312 C 60.855469 221.152344 64.03125 220.683594 67.53125 219.984375 C 68.542969 219.78125 69.523438 219.570312 70.464844 219.359375 C 70.507812 219.386719 70.554688 219.414062 70.605469 219.445312 C 69.691406 219.699219 68.855469 219.957031 68.128906 220.191406 C 67.335938 220.125 66.824219 220.128906 66.824219 220.128906 C 66.824219 220.128906 67.046875 220.253906 67.425781 220.425781 C 66.386719 220.78125 65.667969 221.0625 65.414062 221.160156 C 65.234375 221.136719 65.0625 221.109375 64.910156 221.089844 C 64.359375 221.011719 64.015625 220.976562 64.015625 220.976562 C 64.015625 220.976562 64.300781 221.210938 64.808594 221.488281 C 64.929688 221.554688 65.066406 221.625 65.210938 221.691406 C 64.746094 221.800781 64.234375 221.929688 63.683594 222.078125 C 63.066406 221.976562 62.496094 221.882812 62.015625 221.804688 C 62.957031 221.394531 63.542969 221.066406 63.542969 221.066406 C 63.542969 221.066406 62.335938 221.222656 60.6875 221.589844 C 60.558594 221.570312 60.484375 221.558594 60.484375 221.558594 C 60.484375 221.558594 60.511719 221.582031 60.5625 221.617188 C 60.042969 221.734375 59.484375 221.871094 58.90625 222.03125 C 57.355469 222.460938 56.042969 222.953125 55.277344 223.257812 C 55.375 223.074219 55.464844 222.832031 55.460938 222.535156 C 55.460938 222.273438 55.382812 222.019531 55.269531 221.816406 C 55.851562 221.757812 57.003906 221.640625 58.558594 221.445312 Z M 79.664062 217.203125 C 80.285156 217.425781 81.136719 217.699219 82.105469 217.886719 C 82.53125 217.972656 82.945312 218.03125 83.332031 218.074219 C 82.730469 218.238281 82.128906 218.402344 81.527344 218.570312 C 81.410156 218.542969 81.277344 218.515625 81.132812 218.480469 C 80.527344 218.34375 79.703125 218.15625 78.804688 217.96875 C 78.675781 217.941406 78.546875 217.914062 78.421875 217.886719 C 78.441406 217.882812 78.449219 217.878906 78.449219 217.878906 C 78.449219 217.878906 78.433594 217.878906 78.398438 217.882812 C 77.976562 217.796875 77.582031 217.71875 77.226562 217.648438 C 78.085938 217.410156 78.78125 217.203125 79.277344 217.054688 C 79.394531 217.101562 79.523438 217.148438 79.664062 217.203125 Z M 72.402344 220.882812 C 72.757812 220.757812 73.09375 220.636719 73.402344 220.527344 C 73.777344 220.601562 74.144531 220.648438 74.484375 220.671875 C 73.949219 220.84375 73.414062 221.011719 72.882812 221.1875 C 72.675781 221.117188 72.4375 221.042969 72.171875 220.960938 C 72.246094 220.933594 72.324219 220.90625 72.402344 220.882812 Z M 74.714844 219.164062 C 75.125 219.371094 75.632812 219.570312 76.210938 219.6875 C 76.597656 219.765625 76.96875 219.796875 77.3125 219.796875 C 76.785156 219.957031 76.257812 220.113281 75.734375 220.273438 C 75.464844 220.199219 75.152344 220.117188 74.808594 220.027344 C 75.457031 219.792969 75.824219 219.660156 75.824219 219.660156 C 75.824219 219.660156 75.34375 219.757812 74.511719 219.949219 C 74.160156 219.863281 73.785156 219.769531 73.390625 219.683594 C 73.304688 219.664062 73.21875 219.644531 73.128906 219.628906 C 73.6875 219.472656 74.21875 219.316406 74.714844 219.164062 Z M 73.777344 218.566406 C 73.808594 218.59375 73.84375 218.621094 73.882812 218.648438 C 73.1875 218.796875 72.449219 218.964844 71.683594 219.160156 C 71.535156 219.195312 71.390625 219.234375 71.242188 219.273438 C 71.179688 219.265625 71.117188 219.253906 71.058594 219.246094 C 71.042969 219.242188 71.027344 219.238281 71.007812 219.234375 C 71.988281 219.011719 72.914062 218.785156 73.777344 218.566406 Z M 74.386719 218.546875 C 74.257812 218.527344 74.140625 218.515625 74.042969 218.5 C 74.886719 218.285156 75.664062 218.078125 76.363281 217.890625 C 76.375 217.898438 76.386719 217.902344 76.398438 217.910156 C 76.511719 217.976562 76.640625 218.046875 76.777344 218.113281 C 76.121094 218.21875 75.304688 218.359375 74.386719 218.546875 Z M 78.605469 219.410156 C 78.507812 219.382812 78.398438 219.355469 78.277344 219.324219 C 77.777344 219.195312 77.097656 219.027344 76.355469 218.875 C 76.195312 218.84375 76.042969 218.8125 75.894531 218.785156 C 76.40625 218.617188 76.859375 218.460938 77.238281 218.328125 C 77.652344 218.503906 78.132812 218.671875 78.660156 218.78125 C 79.222656 218.898438 79.761719 218.9375 80.242188 218.9375 C 79.695312 219.09375 79.148438 219.25 78.605469 219.410156 Z M 70.273438 220.492188 C 70.144531 220.464844 70.019531 220.441406 69.894531 220.421875 C 70.472656 220.296875 71.078125 220.160156 71.707031 220.003906 C 72.023438 220.136719 72.375 220.261719 72.753906 220.371094 C 72.585938 220.410156 72.421875 220.453125 72.246094 220.496094 C 71.953125 220.570312 71.648438 220.648438 71.332031 220.730469 C 71 220.644531 70.644531 220.5625 70.273438 220.492188 Z M 67.074219 221.441406 C 67.472656 221.269531 67.699219 221.167969 67.699219 221.167969 C 67.699219 221.167969 67.320312 221.234375 66.675781 221.367188 C 66.257812 221.292969 65.867188 221.230469 65.523438 221.179688 C 65.933594 221.125 66.910156 220.992188 68.21875 220.753906 C 68.621094 220.90625 69.101562 221.0625 69.625 221.191406 C 69.125 221.328125 68.601562 221.480469 68.058594 221.636719 C 67.75 221.570312 67.417969 221.503906 67.074219 221.441406 Z M 64.960938 222.300781 C 65.238281 222.191406 65.5 222.085938 65.738281 221.992188 C 65.773438 221.980469 65.804688 221.964844 65.835938 221.953125 C 66.019531 222.019531 66.210938 222.078125 66.414062 222.132812 C 66.132812 222.222656 65.847656 222.308594 65.558594 222.402344 C 65.371094 222.371094 65.167969 222.335938 64.960938 222.300781 Z M 63.90625 222.945312 C 63.886719 222.953125 63.867188 222.957031 63.847656 222.964844 C 63.296875 223.152344 62.757812 223.339844 62.234375 223.523438 C 62.105469 223.5 61.976562 223.472656 61.839844 223.445312 C 62.40625 223.25 62.949219 223.058594 63.457031 222.871094 C 63.535156 222.882812 63.609375 222.898438 63.6875 222.914062 C 63.757812 222.925781 63.832031 222.933594 63.90625 222.945312 Z M 58.683594 222.945312 C 58.839844 222.90625 59 222.863281 59.160156 222.816406 C 59.953125 222.597656 60.6875 222.339844 61.320312 222.089844 C 61.332031 222.097656 61.34375 222.105469 61.355469 222.109375 C 61.589844 222.234375 61.871094 222.371094 62.191406 222.492188 C 61.703125 222.636719 61.199219 222.792969 60.683594 222.960938 C 60.5 223.023438 60.324219 223.082031 60.144531 223.144531 C 59.585938 223.058594 59.082031 222.992188 58.683594 222.945312 Z M 56.515625 225.746094 C 55.964844 225.609375 55.457031 225.492188 55.039062 225.398438 C 55.351562 225.324219 55.734375 225.234375 56.179688 225.121094 C 56.277344 225.09375 56.386719 225.066406 56.492188 225.039062 C 56.746094 225.160156 57.039062 225.285156 57.363281 225.394531 C 57.070312 225.515625 56.789062 225.632812 56.515625 225.746094 Z M 58.667969 224.867188 C 58.574219 224.851562 58.484375 224.832031 58.390625 224.8125 C 58.171875 224.773438 57.964844 224.734375 57.761719 224.703125 C 58.511719 224.492188 59.347656 224.25 60.226562 223.972656 C 60.359375 224.003906 60.496094 224.035156 60.636719 224.058594 C 60.667969 224.066406 60.699219 224.066406 60.734375 224.074219 C 60.007812 224.34375 59.316406 224.609375 58.667969 224.867188 Z M 29.636719 224.136719 Z M 25.089844 223.679688 C 25.050781 223.746094 25.015625 223.808594 24.976562 223.875 C 24.679688 224.410156 24.402344 225.023438 24.179688 225.6875 C 23.988281 225.335938 23.796875 225.046875 23.640625 224.835938 C 23.683594 224.636719 23.71875 224.46875 23.75 224.34375 C 23.78125 224.191406 23.800781 224.109375 23.800781 224.109375 C 23.800781 224.109375 23.761719 224.152344 23.691406 224.226562 C 24.078125 223.667969 24.527344 223.152344 25.023438 222.683594 C 25.054688 222.65625 25.085938 222.628906 25.117188 222.601562 C 25.09375 222.910156 25.078125 223.277344 25.089844 223.679688 Z M 23.851562 226.972656 C 23.8125 227.195312 23.773438 227.414062 23.75 227.621094 C 23.578125 227.265625 23.386719 226.964844 23.230469 226.738281 C 23.324219 226.304688 23.410156 225.902344 23.488281 225.539062 C 23.566406 225.953125 23.683594 226.453125 23.851562 226.972656 Z M 143.667969 219.175781 C 146.820312 218.332031 149.910156 217.167969 152.808594 215.59375 C 154.257812 214.800781 155.644531 213.933594 156.988281 212.925781 C 158.324219 211.914062 159.546875 210.769531 160.664062 209.542969 C 162.90625 207.089844 164.703125 204.292969 166.144531 201.367188 C 166.328125 201.003906 166.5 200.632812 166.671875 200.261719 L 166.800781 199.984375 C 166.84375 199.890625 166.886719 199.761719 166.929688 199.652344 C 167.011719 199.421875 167.113281 199.199219 167.171875 198.960938 C 167.449219 198.007812 167.46875 196.984375 167.308594 196.035156 C 167.140625 195.082031 166.792969 194.199219 166.347656 193.402344 C 166.125 193.003906 165.875 192.628906 165.605469 192.269531 C 165.328125 191.90625 165.046875 191.566406 164.671875 191.222656 C 162.222656 188.949219 159.335938 187.210938 156.269531 186.023438 C 153.179688 184.832031 149.910156 184.160156 146.65625 183.992188 C 143.398438 183.816406 140.152344 184.085938 137.003906 184.699219 C 135.429688 185.003906 133.875 185.386719 132.34375 185.839844 C 130.816406 186.292969 129.300781 186.8125 127.828125 187.445312 C 124.882812 188.691406 122.058594 190.375 119.769531 192.6875 C 117.496094 194.992188 115.789062 197.917969 115.191406 201.140625 C 115.148438 201.339844 115.121094 201.542969 115.09375 201.746094 C 115.074219 201.945312 115.03125 202.148438 115.023438 202.351562 L 114.984375 202.945312 C 114.976562 203.070312 114.984375 203.203125 114.980469 203.332031 L 114.980469 203.527344 C 114.945312 203.578125 114.886719 203.613281 114.835938 203.652344 C 114.730469 203.726562 114.621094 203.792969 114.507812 203.859375 L 114.332031 203.957031 L 114.089844 204.082031 C 113.921875 204.164062 113.753906 204.246094 113.582031 204.324219 C 112.207031 204.964844 110.761719 205.511719 109.316406 206.039062 C 106.425781 207.09375 103.476562 207.996094 100.492188 208.757812 C 97.496094 209.515625 94.496094 210.269531 91.492188 210.992188 C 85.488281 212.441406 79.453125 213.789062 73.347656 214.796875 C 70.292969 215.304688 67.222656 215.726562 64.140625 216.039062 C 61.054688 216.355469 57.957031 216.542969 54.84375 216.648438 C 48.621094 216.871094 42.347656 216.867188 36.074219 217.609375 C 34.503906 217.808594 32.941406 218.023438 31.378906 218.332031 C 29.816406 218.640625 28.238281 219.082031 26.792969 219.890625 C 26.085938 220.300781 25.410156 220.769531 24.785156 221.3125 C 24.171875 221.867188 23.609375 222.480469 23.121094 223.15625 C 22.171875 224.523438 21.523438 226.15625 21.4375 227.867188 C 21.378906 228.640625 21.496094 229.273438 21.621094 229.730469 C 21.75 230.191406 21.921875 230.472656 22.03125 230.59375 C 22.144531 230.714844 22.226562 230.664062 22.253906 230.449219 C 22.292969 230.234375 22.246094 229.859375 22.222656 229.296875 C 22.195312 228.828125 22.210938 228.355469 22.269531 227.890625 C 22.269531 228.238281 22.304688 228.554688 22.347656 228.808594 C 22.394531 229.070312 22.449219 229.273438 22.492188 229.414062 C 22.539062 229.550781 22.566406 229.628906 22.566406 229.628906 C 22.566406 229.628906 22.585938 229.542969 22.621094 229.398438 C 22.65625 229.25 22.703125 229.042969 22.761719 228.789062 C 22.835938 228.464844 22.929688 228.0625 23.03125 227.621094 C 23.085938 227.941406 23.164062 228.296875 23.269531 228.664062 C 23.402344 229.113281 23.566406 229.515625 23.71875 229.847656 C 23.734375 230.007812 23.753906 230.152344 23.773438 230.269531 C 23.8125 230.511719 23.835938 230.648438 23.835938 230.648438 C 23.835938 230.648438 23.859375 230.507812 23.902344 230.257812 C 23.902344 230.25 23.90625 230.238281 23.90625 230.226562 C 24.085938 230.578125 24.222656 230.78125 24.222656 230.78125 C 24.222656 230.78125 24.375 229.90625 24.164062 228.855469 C 24.210938 228.636719 24.265625 228.402344 24.324219 228.15625 C 24.65625 228.859375 24.953125 229.300781 24.953125 229.300781 C 24.953125 229.300781 25.078125 228.144531 24.679688 226.855469 C 24.765625 226.554688 24.863281 226.242188 24.96875 225.925781 C 25.058594 225.660156 25.148438 225.398438 25.238281 225.144531 C 25.367188 225.84375 25.558594 226.445312 25.730469 226.886719 C 25.929688 227.414062 26.097656 227.714844 26.097656 227.714844 C 26.097656 227.714844 26.128906 227.351562 26.128906 226.785156 C 26.125 226.21875 26.101562 225.453125 25.988281 224.621094 C 25.941406 224.28125 25.886719 223.960938 25.824219 223.65625 C 25.96875 223.316406 26.105469 223 26.242188 222.726562 C 26.332031 222.519531 26.429688 222.339844 26.511719 222.175781 C 26.589844 222.011719 26.664062 221.875 26.726562 221.761719 C 26.847656 221.53125 26.914062 221.402344 26.914062 221.402344 C 26.914062 221.402344 26.808594 221.503906 26.621094 221.683594 C 26.527344 221.777344 26.417969 221.890625 26.296875 222.03125 C 26.171875 222.167969 26.027344 222.328125 25.886719 222.511719 C 25.804688 222.613281 25.71875 222.726562 25.636719 222.84375 C 25.601562 222.714844 25.570312 222.589844 25.539062 222.476562 C 25.519531 222.410156 25.5 222.347656 25.484375 222.289062 C 26.292969 221.632812 27.203125 221.078125 28.160156 220.683594 C 29.3125 220.210938 30.582031 219.9375 31.90625 219.730469 C 37.269531 218.90625 42.949219 218.773438 48.820312 218.707031 C 51.757812 218.671875 54.75 218.644531 57.792969 218.523438 C 60.835938 218.410156 63.921875 218.160156 67.003906 217.804688 C 73.167969 217.09375 79.34375 215.945312 85.464844 214.574219 C 88.527344 213.890625 91.578125 213.160156 94.617188 212.402344 C 96.132812 212.023438 97.652344 211.640625 99.167969 211.261719 C 100.667969 210.878906 102.222656 210.488281 103.734375 210.042969 C 106.78125 209.160156 109.757812 208.140625 112.683594 206.953125 C 113.421875 206.648438 114.152344 206.332031 114.894531 205.964844 L 115.175781 205.820312 L 115.359375 205.722656 L 115.574219 205.601562 C 115.867188 205.4375 116.160156 205.257812 116.40625 205.054688 C 117.03125 204.699219 116.882812 203.933594 117 203.320312 L 117.035156 202.667969 C 117.042969 202.496094 117.0625 202.328125 117.085938 202.160156 C 117.121094 201.820312 117.1875 201.484375 117.253906 201.144531 C 117.40625 200.476562 117.585938 199.808594 117.851562 199.167969 C 118.109375 198.523438 118.40625 197.890625 118.761719 197.289062 C 119.101562 196.679688 119.496094 196.097656 119.925781 195.546875 C 120.78125 194.429688 121.785156 193.449219 122.890625 192.570312 C 125.109375 190.816406 127.691406 189.539062 130.359375 188.566406 C 135.722656 186.648438 141.320312 185.652344 146.628906 185.988281 C 148.347656 186.097656 150.050781 186.347656 151.726562 186.738281 C 153.398438 187.136719 155.03125 187.6875 156.605469 188.378906 C 158.167969 189.085938 159.667969 189.9375 161.058594 190.941406 C 161.742188 191.453125 162.421875 191.976562 163.042969 192.566406 L 163.28125 192.78125 L 163.335938 192.832031 L 163.375 192.871094 L 163.472656 192.976562 C 163.601562 193.121094 163.734375 193.273438 163.855469 193.433594 C 164.105469 193.75 164.324219 194.089844 164.519531 194.441406 C 164.90625 195.140625 165.175781 195.890625 165.265625 196.648438 C 165.355469 197.402344 165.25 198.160156 164.957031 198.863281 C 164.902344 199.035156 164.796875 199.238281 164.707031 199.433594 L 164.425781 200.027344 C 164.230469 200.414062 164.046875 200.808594 163.835938 201.191406 C 163.433594 201.964844 162.996094 202.714844 162.539062 203.457031 C 161.625 204.933594 160.589844 206.335938 159.453125 207.636719 C 158.304688 208.929688 157.042969 210.121094 155.671875 211.160156 C 152.894531 213.21875 149.738281 214.804688 146.449219 215.960938 C 144.796875 216.535156 143.113281 217.019531 141.402344 217.398438 C 139.691406 217.78125 137.960938 218.085938 136.226562 218.261719 C 134.496094 218.445312 132.753906 218.488281 131.03125 218.351562 C 129.316406 218.207031 127.609375 217.886719 126.003906 217.3125 C 124.398438 216.738281 122.871094 215.929688 121.535156 214.886719 C 120.867188 214.367188 120.238281 213.789062 119.6875 213.152344 C 119.542969 213 119.417969 212.832031 119.285156 212.667969 C 119.148438 212.507812 119.023438 212.339844 118.90625 212.164062 C 118.785156 211.992188 118.65625 211.824219 118.550781 211.644531 L 118.339844 211.300781 C 118.265625 211.160156 118.183594 211.023438 118.113281 210.886719 L 117.214844 210.804688 L 117.136719 210.792969 L 117.058594 210.722656 L 116.90625 210.589844 C 116.867188 210.539062 116.785156 210.511719 116.710938 210.484375 L 116.480469 210.398438 L 116.25 210.308594 C 116.210938 210.300781 116.175781 210.265625 116.132812 210.28125 L 116 210.304688 L 115.769531 210.351562 C 115.417969 210.105469 114.992188 209.835938 114.511719 209.589844 C 113.171875 208.90625 111.972656 208.703125 111.972656 208.703125 C 111.972656 208.703125 112.839844 209.660156 114.15625 210.335938 C 114.328125 210.421875 114.503906 210.5 114.675781 210.574219 L 113.769531 210.757812 C 113.511719 210.667969 113.238281 210.566406 112.949219 210.464844 C 111.621094 209.988281 110.554688 209.609375 110.554688 209.609375 C 110.554688 209.609375 110.71875 209.878906 111.074219 210.226562 C 111.347656 210.5 111.757812 210.820312 112.265625 211.066406 L 111.777344 211.167969 C 111.664062 211.191406 111.550781 211.214844 111.4375 211.238281 C 111.242188 211.167969 111.039062 211.097656 110.828125 211.027344 C 110.203125 210.8125 109.632812 210.644531 109.210938 210.515625 C 108.792969 210.390625 108.523438 210.320312 108.523438 210.320312 C 108.523438 210.320312 108.691406 210.570312 109.035156 210.890625 C 109.265625 211.101562 109.585938 211.339844 109.972656 211.542969 C 109.917969 211.554688 109.867188 211.566406 109.816406 211.578125 C 109.410156 211.421875 108.914062 211.246094 108.371094 211.085938 C 107.699219 210.890625 107.085938 210.761719 106.636719 210.683594 C 106.1875 210.601562 105.902344 210.570312 105.902344 210.570312 C 105.902344 210.570312 106.113281 210.792969 106.503906 211.074219 C 106.894531 211.351562 107.464844 211.683594 108.15625 211.882812 C 108.191406 211.894531 108.222656 211.898438 108.257812 211.90625 C 107.832031 211.996094 107.410156 212.089844 106.988281 212.179688 C 106.882812 212.152344 106.773438 212.121094 106.664062 212.089844 C 105.96875 211.90625 105.347656 211.742188 104.898438 211.625 C 104.441406 211.503906 104.152344 211.433594 104.152344 211.433594 C 104.152344 211.433594 104.347656 211.6875 104.738281 212.003906 C 104.9375 212.167969 105.191406 212.34375 105.492188 212.503906 C 105.445312 212.515625 105.398438 212.527344 105.351562 212.535156 C 105.292969 212.519531 105.234375 212.5 105.175781 212.488281 C 104.285156 212.277344 103.515625 212.414062 103.515625 212.414062 C 103.515625 212.414062 103.695312 212.621094 104.007812 212.839844 C 103.578125 212.9375 103.148438 213.035156 102.71875 213.136719 C 101.710938 213.375 100.710938 213.628906 99.71875 213.878906 L 93.742188 215.375 C 91.507812 215.9375 89.269531 216.503906 87.039062 217.085938 C 87.019531 217.082031 87 217.078125 86.980469 217.074219 C 86.425781 216.949219 85.667969 216.785156 84.839844 216.640625 C 84.839844 216.640625 84.835938 216.640625 84.832031 216.636719 C 84.933594 216.628906 85.039062 216.613281 85.148438 216.597656 C 85.941406 216.472656 86.636719 216.195312 87.117188 215.949219 C 87.601562 215.703125 87.878906 215.492188 87.878906 215.492188 C 87.878906 215.492188 87.542969 215.503906 87.015625 215.550781 C 86.484375 215.59375 85.769531 215.664062 85 215.785156 C 84.226562 215.90625 83.542969 216.058594 83.046875 216.175781 C 82.839844 216.226562 82.664062 216.269531 82.53125 216.308594 C 82.101562 216.257812 81.835938 216.238281 81.835938 216.238281 C 81.835938 216.238281 82.121094 216.460938 82.628906 216.730469 C 83.132812 217 83.863281 217.308594 84.722656 217.457031 C 84.929688 217.492188 85.136719 217.519531 85.335938 217.535156 C 85.09375 217.597656 84.847656 217.664062 84.601562 217.726562 C 83.984375 217.507812 83.15625 217.253906 82.238281 217.074219 C 81.429688 216.914062 80.6875 216.839844 80.085938 216.808594 C 80.125 216.796875 80.144531 216.789062 80.144531 216.789062 C 80.144531 216.789062 80.109375 216.792969 80.046875 216.804688 C 79.933594 216.800781 79.820312 216.792969 79.714844 216.789062 C 79.066406 216.769531 78.671875 216.796875 78.671875 216.796875 C 78.671875 216.796875 78.820312 216.867188 79.082031 216.976562 C 78.417969 217.09375 77.46875 217.261719 76.300781 217.476562 C 75.839844 217.390625 75.558594 217.34375 75.558594 217.34375 C 75.558594 217.34375 75.660156 217.429688 75.84375 217.558594 C 73.550781 217.980469 70.535156 218.546875 67.277344 219.195312 C 63.785156 219.890625 60.675781 220.558594 58.4375 221.046875 C 56.914062 221.378906 55.796875 221.632812 55.238281 221.761719 C 55.226562 221.742188 55.21875 221.722656 55.207031 221.703125 C 54.90625 221.261719 54.515625 221.039062 54.136719 220.925781 C 53.761719 220.808594 53.386719 220.796875 53.058594 220.855469 C 52.394531 220.976562 51.921875 221.339844 51.644531 221.695312 C 51.363281 222.054688 51.273438 222.410156 51.257812 222.636719 C 51.253906 222.664062 51.253906 222.6875 51.253906 222.710938 C 51.230469 222.675781 51.210938 222.640625 51.183594 222.609375 C 50.929688 222.296875 50.519531 222.097656 50.171875 222.070312 C 50.238281 222.046875 50.308594 222.015625 50.378906 221.976562 C 50.566406 221.867188 50.757812 221.703125 50.910156 221.457031 C 51.058594 221.214844 51.152344 220.867188 51.113281 220.5 C 51.089844 220.316406 51.039062 220.128906 50.9375 219.941406 C 50.839844 219.753906 50.675781 219.558594 50.472656 219.421875 C 50.265625 219.28125 50.023438 219.199219 49.804688 219.167969 C 49.578125 219.136719 49.371094 219.152344 49.183594 219.1875 C 48.804688 219.257812 48.515625 219.398438 48.25 219.5625 C 47.984375 219.734375 47.722656 219.957031 47.53125 220.277344 C 47.433594 220.4375 47.363281 220.621094 47.332031 220.808594 C 47.308594 220.980469 47.320312 221.148438 47.355469 221.292969 C 47.097656 220.980469 46.804688 220.707031 46.5 220.503906 C 46.03125 220.179688 45.566406 219.976562 45.136719 219.8125 C 44.703125 219.652344 44.300781 219.527344 43.914062 219.433594 C 43.148438 219.25 42.488281 219.257812 42.078125 219.367188 C 41.871094 219.414062 41.722656 219.476562 41.625 219.523438 C 41.53125 219.574219 41.480469 219.597656 41.480469 219.597656 C 41.480469 219.597656 41.535156 219.597656 41.640625 219.59375 C 41.742188 219.589844 41.894531 219.59375 42.085938 219.625 C 42.46875 219.675781 43 219.859375 43.625 220.207031 C 43.933594 220.378906 44.28125 220.59375 44.640625 220.824219 C 44.992188 221.058594 45.347656 221.308594 45.648438 221.601562 C 46.242188 222.164062 46.628906 222.980469 46.765625 223.941406 C 46.902344 224.898438 46.761719 225.847656 46.492188 226.667969 C 46.21875 227.488281 45.8125 228.1875 45.398438 228.71875 C 44.984375 229.253906 44.570312 229.636719 44.269531 229.878906 C 44.210938 229.925781 44.160156 229.964844 44.113281 230 C 43.753906 230.191406 43.542969 230.320312 43.542969 230.320312 C 43.542969 230.320312 45.132812 230.304688 46.910156 229.675781 C 47.164062 229.582031 47.40625 229.484375 47.640625 229.382812 C 47.765625 229.472656 47.90625 229.574219 48.066406 229.675781 C 47.484375 229.832031 46.859375 230.015625 46.214844 230.230469 C 45.859375 230.128906 45.605469 230.105469 45.605469 230.105469 C 45.605469 230.105469 45.671875 230.210938 45.796875 230.371094 C 45.089844 230.621094 44.429688 230.878906 43.84375 231.125 C 43.480469 230.941406 43.183594 230.875 43.183594 230.875 C 43.183594 230.875 43.246094 231.0625 43.378906 231.328125 C 43.03125 231.480469 42.710938 231.628906 42.429688 231.761719 C 42.03125 231.953125 41.707031 232.121094 41.472656 232.246094 C 41.402344 232.226562 41.332031 232.210938 41.265625 232.199219 C 41.566406 232.054688 41.835938 231.910156 42.058594 231.773438 C 42.585938 231.449219 42.882812 231.191406 42.882812 231.191406 C 42.882812 231.191406 42.5 231.257812 41.910156 231.386719 C 41.316406 231.515625 40.515625 231.691406 39.648438 231.90625 C 38.78125 232.125 38.011719 232.347656 37.453125 232.515625 C 37.320312 232.554688 37.203125 232.589844 37.097656 232.621094 C 37.039062 232.613281 36.980469 232.605469 36.917969 232.59375 C 36.511719 232.527344 35.949219 232.371094 35.347656 232.058594 C 34.75 231.746094 34.113281 231.269531 33.601562 230.625 C 33.089844 229.992188 32.710938 229.171875 32.511719 228.253906 C 32.316406 227.335938 32.3125 226.414062 32.484375 225.582031 C 32.648438 224.746094 32.96875 223.992188 33.308594 223.378906 C 33.65625 222.765625 34.019531 222.289062 34.292969 221.972656 C 34.425781 221.816406 34.539062 221.691406 34.617188 221.609375 C 34.691406 221.527344 34.734375 221.480469 34.734375 221.480469 C 34.734375 221.480469 34.679688 221.507812 34.574219 221.550781 C 34.46875 221.59375 34.320312 221.667969 34.128906 221.769531 C 33.753906 221.976562 33.222656 222.320312 32.660156 222.871094 C 32.101562 223.421875 31.519531 224.199219 31.140625 225.207031 C 31.078125 225.378906 31.027344 225.554688 30.976562 225.734375 C 30.921875 225.730469 30.851562 225.71875 30.773438 225.691406 C 30.597656 225.628906 30.425781 225.476562 30.273438 225.273438 C 30.125 225.074219 29.957031 224.820312 29.835938 224.574219 C 29.777344 224.453125 29.734375 224.335938 29.714844 224.25 C 29.710938 224.210938 29.707031 224.179688 29.714844 224.164062 C 29.710938 224.164062 29.703125 224.160156 29.695312 224.15625 C 29.695312 224.15625 29.699219 224.160156 29.699219 224.160156 L 29.707031 224.160156 L 29.707031 224.164062 L 29.710938 224.164062 C 29.695312 224.160156 29.707031 224.160156 29.714844 224.164062 C 29.714844 224.164062 29.710938 224.160156 29.714844 224.160156 C 29.710938 224.152344 29.722656 224.152344 29.714844 224.148438 L 29.683594 224.152344 C 29.683594 224.152344 29.679688 224.152344 29.679688 224.152344 C 29.679688 224.113281 29.726562 224.042969 29.796875 223.980469 C 29.871094 223.917969 29.949219 223.859375 30.066406 223.820312 C 30.175781 223.785156 30.296875 223.769531 30.417969 223.757812 C 30.667969 223.820312 30.886719 223.796875 31.03125 223.753906 C 31.039062 223.75 31.039062 223.75 31.042969 223.75 C 31.082031 223.75 31.121094 223.75 31.15625 223.75 C 31.332031 223.753906 31.4375 223.75 31.4375 223.75 C 31.4375 223.75 31.394531 223.671875 31.292969 223.535156 C 31.195312 223.398438 31.046875 223.203125 30.78125 222.996094 C 30.738281 222.964844 30.691406 222.929688 30.640625 222.898438 C 30.628906 222.828125 30.625 222.757812 30.632812 222.691406 C 30.640625 222.585938 30.664062 222.484375 30.691406 222.371094 C 30.722656 222.257812 30.753906 222.136719 30.785156 222.011719 C 30.804688 221.953125 30.820312 221.867188 30.835938 221.824219 C 30.839844 221.808594 30.84375 221.808594 30.847656 221.800781 C 30.875 221.785156 30.910156 221.765625 30.953125 221.75 C 31.128906 221.6875 31.386719 221.699219 31.613281 221.769531 C 31.839844 221.839844 32.035156 221.976562 32.160156 222.105469 C 32.222656 222.171875 32.269531 222.230469 32.296875 222.273438 C 32.328125 222.316406 32.347656 222.339844 32.347656 222.339844 C 32.347656 222.339844 32.355469 222.316406 32.371094 222.269531 C 32.382812 222.21875 32.402344 222.148438 32.410156 222.050781 C 32.429688 221.859375 32.410156 221.558594 32.238281 221.234375 C 32.066406 220.917969 31.753906 220.558594 31.230469 220.386719 C 30.972656 220.300781 30.660156 220.277344 30.34375 220.339844 C 30.183594 220.375 30.011719 220.4375 29.835938 220.550781 C 29.664062 220.660156 29.480469 220.851562 29.375 221.070312 C 29.269531 221.28125 29.242188 221.460938 29.222656 221.597656 C 29.210938 221.730469 29.207031 221.835938 29.210938 221.960938 C 29.21875 222.191406 29.253906 222.425781 29.328125 222.652344 C 29.097656 222.699219 28.855469 222.792969 28.625 222.980469 C 28.480469 223.097656 28.347656 223.25 28.25 223.4375 C 28.152344 223.625 28.097656 223.820312 28.078125 224.03125 C 28.050781 224.457031 28.199219 224.820312 28.367188 225.0625 C 28.535156 225.308594 28.722656 225.476562 28.910156 225.609375 C 28.953125 225.640625 28.996094 225.664062 29.039062 225.691406 C 28.933594 225.738281 28.824219 225.796875 28.722656 225.871094 C 28.492188 226.035156 28.261719 226.285156 28.128906 226.628906 C 28.058594 226.796875 28.023438 227 28.019531 227.191406 C 28.019531 227.386719 28.054688 227.582031 28.113281 227.757812 C 28.234375 228.078125 28.421875 228.335938 28.652344 228.53125 C 28.554688 228.683594 28.472656 228.859375 28.425781 229.0625 C 28.335938 229.433594 28.410156 229.863281 28.585938 230.1875 C 28.90625 230.777344 29.453125 231.09375 30.011719 231.152344 C 30.003906 231.167969 29.996094 231.183594 29.988281 231.203125 C 29.894531 231.4375 29.832031 231.722656 29.84375 232.035156 C 29.851562 232.191406 29.878906 232.34375 29.917969 232.507812 C 29.941406 232.582031 29.972656 232.664062 30.015625 232.753906 C 29.988281 232.757812 29.957031 232.761719 29.921875 232.769531 C 29.742188 232.800781 29.476562 232.835938 29.160156 232.875 C 28.847656 232.914062 28.480469 232.945312 28.082031 232.96875 C 27.914062 232.671875 27.765625 232.394531 27.640625 232.144531 C 27.570312 232.011719 27.507812 231.886719 27.449219 231.769531 C 27.492188 231.746094 27.539062 231.71875 27.578125 231.691406 C 27.933594 231.46875 28.121094 231.265625 28.121094 231.265625 C 28.121094 231.265625 27.863281 231.273438 27.46875 231.296875 C 27.390625 231.300781 27.308594 231.304688 27.222656 231.308594 C 27.21875 231.304688 27.214844 231.296875 27.214844 231.289062 C 27.113281 231.082031 27.054688 230.96875 27.054688 230.96875 C 27.054688 230.96875 27.066406 231.09375 27.089844 231.316406 C 26.761719 231.335938 26.378906 231.355469 25.980469 231.390625 C 25.414062 231.433594 24.90625 231.496094 24.527344 231.539062 C 24.148438 231.582031 23.90625 231.621094 23.90625 231.621094 C 23.90625 231.621094 24.117188 231.785156 24.5 231.949219 C 24.878906 232.113281 25.441406 232.261719 26.0625 232.210938 C 26.484375 232.175781 26.863281 232.054688 27.175781 231.910156 C 27.195312 232.027344 27.222656 232.152344 27.253906 232.289062 C 27.296875 232.503906 27.363281 232.738281 27.441406 232.988281 C 27.253906 232.992188 27.0625 232.992188 26.867188 232.988281 C 26.738281 232.902344 26.652344 232.855469 26.652344 232.855469 C 26.652344 232.855469 26.671875 232.90625 26.703125 232.988281 C 25.761719 232.96875 24.921875 232.882812 24.308594 232.789062 C 24.003906 232.742188 23.753906 232.703125 23.582031 232.667969 C 23.410156 232.636719 23.3125 232.621094 23.3125 232.621094 C 23.3125 232.621094 23.394531 232.683594 23.542969 232.789062 C 23.691406 232.902344 23.917969 233.042969 24.210938 233.191406 C 24.636719 233.40625 25.21875 233.625 25.898438 233.738281 C 25.902344 233.816406 25.910156 233.90625 25.925781 234.011719 C 25.949219 234.191406 26 234.402344 26.078125 234.628906 C 25.808594 234.632812 25.558594 234.628906 25.335938 234.625 C 25.058594 234.617188 24.824219 234.609375 24.636719 234.601562 C 23.765625 233.765625 23.179688 232.902344 22.792969 232.207031 C 22.683594 232.027344 22.605469 231.847656 22.515625 231.695312 C 22.429688 231.539062 22.34375 231.402344 22.28125 231.277344 C 22.152344 231.027344 22.035156 230.855469 21.933594 230.769531 C 21.738281 230.59375 21.613281 230.765625 21.628906 231.40625 C 21.667969 232.03125 21.859375 233.183594 22.824219 234.589844 C 23.960938 236.21875 25.652344 237.410156 27.464844 238.078125 C 28.371094 238.417969 29.308594 238.644531 30.257812 238.777344 L 30.96875 238.859375 C 31.210938 238.878906 31.457031 238.894531 31.703125 238.898438 C 32.191406 238.910156 32.675781 238.886719 33.152344 238.847656 C 34.105469 238.765625 35.023438 238.589844 35.910156 238.382812 C 36.804688 238.179688 37.644531 237.929688 38.5 237.683594 C 40.195312 237.175781 41.882812 236.617188 43.53125 235.988281 C 50.15625 233.503906 56.398438 230.277344 62.753906 227.59375 C 75.449219 222.214844 89.203125 219.136719 102.75 215.636719 C 105.296875 215.015625 107.890625 214.453125 110.484375 213.898438 L 114.382812 213.074219 L 116.25 212.691406 L 116.390625 212.65625 C 116.398438 212.660156 116.398438 212.671875 116.40625 212.679688 L 116.433594 212.730469 L 116.503906 212.84375 C 116.621094 213.035156 116.746094 213.222656 116.878906 213.402344 C 117.128906 213.773438 117.410156 214.117188 117.691406 214.464844 C 118.273438 215.136719 118.898438 215.765625 119.570312 216.328125 C 120.917969 217.453125 122.421875 218.359375 124.007812 219.039062 C 127.207031 220.417969 130.652344 220.828125 133.96875 220.71875 C 135.632812 220.664062 137.273438 220.480469 138.886719 220.210938 C 140.5 219.945312 142.089844 219.597656 143.667969 219.175781 " fill-opacity="1" fill-rule="nonzero"/></g></g></g></g></g></g><path fill="#77b255" d="M 251.515625 198.644531 C 265.007812 190.546875 268.339844 166.890625 265.640625 169.589844 C 268.339844 166.890625 244.050781 169.589844 235.953125 183.085938 C 235.953125 177.6875 230.558594 156.097656 222.460938 174.988281 C 214.363281 193.882812 217.0625 196.582031 217.0625 201.976562 C 217.0625 207.375 227.859375 207.375 227.859375 207.375 C 227.859375 207.375 227.382812 217.695312 232.78125 217.695312 C 238.179688 217.695312 240.40625 219.921875 259.292969 211.824219 C 278.1875 203.726562 256.914062 198.644531 251.515625 198.644531 Z M 251.515625 198.644531 " fill-opacity="1" fill-rule="nonzero"/><path fill="#f4900c" d="M 218.410156 254.605469 C 189.34375 283.667969 141.492188 304.53125 134.746094 297.78125 C 127.996094 291.035156 148.863281 243.183594 177.925781 214.117188 C 206.988281 185.054688 221.933594 185.257812 234.605469 197.925781 C 247.273438 210.597656 247.472656 225.539062 218.410156 254.605469 Z M 218.410156 254.605469 " fill-opacity="1" fill-rule="nonzero"/><path fill="#d67503" d="M 216.320312 220.121094 C 212.609375 216.414062 205.75 209.492188 198.414062 196.816406 C 195.539062 198.695312 192.480469 200.980469 189.21875 203.71875 C 199.917969 217.507812 220.214844 224.011719 216.320312 220.121094 Z M 187.753906 250.933594 C 183.777344 246.957031 176.1875 239.289062 168.269531 224.800781 C 165.644531 227.976562 163.117188 231.265625 160.710938 234.609375 C 171.425781 248.339844 191.628906 254.808594 187.753906 250.933594 Z M 223.253906 249.59375 C 209.585938 241.929688 202.296875 234.667969 198.4375 230.808594 C 194.542969 226.910156 201.078125 247.277344 214.914062 257.960938 C 216.101562 256.855469 221.730469 251.21875 223.253906 249.59375 Z M 176.753906 285.179688 C 180.167969 283.300781 183.636719 281.269531 187.113281 279.085938 C 174.621094 271.8125 167.769531 265.027344 164.085938 261.34375 C 160.566406 257.820312 165.558594 274.117188 176.753906 285.179688 Z M 176.753906 285.179688 " fill-opacity="1" fill-rule="nonzero"/></svg>