<svg id="visual" viewBox="0 0 900 600" width="900" height="600" xmlns="http://www.w3.org/2000/svg" xmlns:xlink="http://www.w3.org/1999/xlink" version="1.1"><rect x="0" y="0" width="900" height="600" fill="#c62367"></rect><path d="M0 421L21.5 425.2C43 429.3 86 437.7 128.8 435.3C171.7 433 214.3 420 257.2 418.3C300 416.7 343 426.3 385.8 429.5C428.7 432.7 471.3 429.3 514.2 422.5C557 415.7 600 405.3 642.8 396C685.7 386.7 728.3 378.3 771.2 386.7C814 395 857 420 878.5 432.5L900 445L900 601L878.5 601C857 601 814 601 771.2 601C728.3 601 685.7 601 642.8 601C600 601 557 601 514.2 601C471.3 601 428.7 601 385.8 601C343 601 300 601 257.2 601C214.3 601 171.7 601 128.8 601C86 601 43 601 21.5 601L0 601Z" fill="#be72e9"></path><path d="M0 476L21.5 475.5C43 475 86 474 128.8 468.2C171.7 462.3 214.3 451.7 257.2 445.3C300 439 343 437 385.8 442.7C428.7 448.3 471.3 461.7 514.2 460.5C557 459.3 600 443.7 642.8 438C685.7 432.3 728.3 436.7 771.2 435.5C814 434.3 857 427.7 878.5 424.3L900 421L900 601L878.5 601C857 601 814 601 771.2 601C728.3 601 685.7 601 642.8 601C600 601 557 601 514.2 601C471.3 601 428.7 601 385.8 601C343 601 300 601 257.2 601C214.3 601 171.7 601 128.8 601C86 601 43 601 21.5 601L0 601Z" fill="#847add"></path><path d="M0 444L21.5 450.5C43 457 86 470 128.8 476.3C171.7 482.7 214.3 482.3 257.2 484.2C300 486 343 490 385.8 484.3C428.7 478.7 471.3 463.3 514.2 463.7C557 464 600 480 642.8 488C685.7 496 728.3 496 771.2 497.3C814 498.7 857 501.3 878.5 502.7L900 504L900 601L878.5 601C857 601 814 601 771.2 601C728.3 601 685.7 601 642.8 601C600 601 557 601 514.2 601C471.3 601 428.7 601 385.8 601C343 601 300 601 257.2 601C214.3 601 171.7 601 128.8 601C86 601 43 601 21.5 601L0 601Z" fill="#587ac3"></path><path d="M0 510L21.5 506.2C43 502.3 86 494.7 128.8 498.3C171.7 502 214.3 517 257.2 516C300 515 343 498 385.8 497.3C428.7 496.7 471.3 512.3 514.2 518.7C557 525 600 522 642.8 523C685.7 524 728.3 529 771.2 529C814 529 857 524 878.5 521.5L900 519L900 601L878.5 601C857 601 814 601 771.2 601C728.3 601 685.7 601 642.8 601C600 601 557 601 514.2 601C471.3 601 428.7 601 385.8 601C343 601 300 601 257.2 601C214.3 601 171.7 601 128.8 601C86 601 43 601 21.5 601L0 601Z" fill="#4574a2"></path><path d="M0 554L21.5 550.2C43 546.3 86 538.7 128.8 541C171.7 543.3 214.3 555.7 257.2 561.3C300 567 343 566 385.8 561.3C428.7 556.7 471.3 548.3 514.2 543.5C557 538.7 600 537.3 642.8 541.7C685.7 546 728.3 556 771.2 554.2C814 552.3 857 538.7 878.5 531.8L900 525L900 601L878.5 601C857 601 814 601 771.2 601C728.3 601 685.7 601 642.8 601C600 601 557 601 514.2 601C471.3 601 428.7 601 385.8 601C343 601 300 601 257.2 601C214.3 601 171.7 601 128.8 601C86 601 43 601 21.5 601L0 601Z" fill="#49697e"></path></svg>