<!DOCTYPE svg PUBLIC "-//W3C//DTD SVG 20010904//EN" "http://www.w3.org/TR/2001/REC-SVG-20010904/DTD/svg10.dtd">
<svg version="1.0" xmlns="http://www.w3.org/2000/svg" width="734px" height="327px" viewBox="0 0 7340 3270" preserveAspectRatio="xMidYMid meet">
<g id="layer1" fill="#000000" stroke="none">
 <path d="M2470 3113 c0 -5 21 -20 47 -35 29 -16 98 -81 175 -165 119 -128 131 -145 170 -236 23 -54 45 -100 50 -103 21 -13 796 -119 805 -110 2 2 -20 53 -51 112 -52 105 -60 115 -208 260 l-153 150 -101 37 c-56 20 -168 51 -249 67 -130 26 -169 30 -317 30 -92 0 -168 -3 -168 -7z"/>
 <path d="M1408 2910 c-81 -10 -113 -19 -102 -30 5 -5 51 -27 103 -49 76 -33 111 -42 175 -47 107 -7 118 1 77 58 -54 75 -96 86 -253 68z"/>
 <path d="M1920 2833 c0 -5 24 -72 54 -150 29 -78 52 -144 50 -146 -3 -2 -101 32 -220 76 -118 44 -218 77 -221 73 -4 -4 29 -44 73 -89 43 -45 111 -115 149 -155 l70 -72 -50 14 c-28 8 -104 29 -169 46 l-120 32 -110 -17 c-139 -21 -159 -26 -149 -35 4 -5 134 -59 288 -121 154 -61 283 -115 287 -118 4 -3 -167 -37 -380 -74 -417 -74 -422 -75 -422 -85 0 -4 42 -33 93 -64 l93 -57 250 -21 250 -22 180 26 181 27 198 84 c205 87 275 126 275 154 0 28 -172 266 -276 383 -61 68 -149 150 -229 214 -124 100 -145 113 -145 97z"/>
 <path d="M1196 2676 c-44 -12 -81 -27 -83 -32 -2 -5 34 -32 80 -61 l82 -52 140 -10 c172 -13 177 -13 173 -1 -1 5 -41 41 -88 80 -118 98 -177 113 -304 76z"/>
 <path d="M440 2665 c0 -2 10 -25 22 -50 19 -38 37 -55 108 -100 l85 -53 121 -7 c106 -6 124 -5 148 10 14 9 26 21 26 26 0 5 -63 41 -140 79 -128 64 -150 72 -243 85 -112 16 -127 17 -127 10z"/>
 <path d="M2716 2519 c-26 -76 -195 -774 -189 -779 23 -23 584 -230 1268 -468 853 -298 785 -266 805 -373 9 -49 22 -69 101 -165 88 -106 92 -110 179 -149 49 -22 94 -44 99 -50 11 -13 -15 -263 -30 -281 -6 -8 -19 -14 -29 -14 -37 0 -62 -75 -39 -118 18 -33 89 -62 152 -62 48 0 54 3 75 33 12 18 22 37 22 41 0 5 -15 29 -34 55 l-33 46 17 136 c10 75 21 142 24 148 5 7 48 11 117 11 l111 0 60 52 c50 44 69 71 115 162 l54 108 127 -6 c412 -19 453 -18 966 18 274 20 501 38 504 41 3 2 -61 74 -141 158 -141 148 -153 158 -329 272 -101 65 -322 201 -493 302 l-310 183 -316 125 -315 125 -360 86 c-699 166 -958 217 -1495 293 -555 79 -676 91 -683 70z m2271 -1439 c18 -36 31 -69 30 -74 -2 -5 -18 -14 -37 -20 -28 -9 -38 -19 -49 -53 -14 -38 -13 -45 4 -83 21 -47 37 -60 112 -85 48 -17 54 -17 95 -2 24 9 56 28 73 41 27 22 29 25 16 52 -7 16 -35 60 -63 97 l-50 68 27 39 c15 22 30 40 32 40 2 0 39 -20 82 -45 69 -40 102 -70 169 -157 11 -14 7 -28 -27 -96 -37 -73 -44 -82 -108 -120 -72 -44 -156 -67 -208 -57 -16 4 -72 25 -122 47 l-93 41 -81 154 c-56 108 -79 161 -75 177 3 12 31 41 63 64 55 40 61 43 118 40 l60 -3 32 -65z"/>
 <path d="M923 2282 c-39 -15 -74 -30 -78 -34 -4 -4 30 -25 76 -48 81 -41 84 -42 158 -35 97 8 141 16 141 24 0 10 -195 121 -211 120 -8 0 -46 -12 -86 -27z"/>
 <path d="M2537 1497 l-97 -132 -211 -100 c-116 -55 -211 -104 -211 -110 0 -21 160 -75 399 -134 l252 -63 123 47 c156 60 134 47 327 192 164 123 201 157 185 173 -11 10 -645 260 -659 260 -6 -1 -54 -60 -108 -133z"/>
 </g>

</svg>