<svg width="295" height="295" viewBox="0 0 295 295" fill="none" xmlns="http://www.w3.org/2000/svg">
<g filter="url(#filter0_d_1_9)">
<path d="M209.758 111.334C227.408 141.717 236.37 173.271 236.615 199.711C236.859 226.167 228.381 247.389 211.293 257.316C194.205 267.242 171.57 264.094 148.709 250.776C125.862 237.466 102.892 214.049 85.2423 183.666C67.5925 153.283 58.6296 121.729 58.3855 95.2891C58.1412 68.8326 66.6189 47.611 83.7071 37.6844C100.795 27.7577 123.43 30.906 146.291 44.2241C169.138 57.5337 192.108 80.9508 209.758 111.334Z" stroke="white" shape-rendering="crispEdges"/>
</g>
<g filter="url(#filter1_d_1_9)">
<path d="M111.334 85.2423C141.717 67.5925 173.271 58.6296 199.711 58.3855C226.167 58.1413 247.389 66.619 257.316 83.7071C267.242 100.795 264.094 123.43 250.776 146.291C237.466 169.138 214.049 192.108 183.666 209.758C153.283 227.408 121.729 236.37 95.2891 236.615C68.8326 236.859 47.611 228.381 37.6844 211.293C27.7577 194.205 30.906 171.57 44.2241 148.709C57.5337 125.862 80.9508 102.892 111.334 85.2423Z" stroke="white" shape-rendering="crispEdges"/>
</g>
<defs>
<filter id="filter0_d_1_9" x="53.8803" y="31.3616" width="187.239" height="240.277" filterUnits="userSpaceOnUse" color-interpolation-filters="sRGB">
<feFlood flood-opacity="0" result="BackgroundImageFix"/>
<feColorMatrix in="SourceAlpha" type="matrix" values="0 0 0 0 0 0 0 0 0 0 0 0 0 0 0 0 0 0 127 0" result="hardAlpha"/>
<feOffset dy="4"/>
<feGaussianBlur stdDeviation="2"/>
<feComposite in2="hardAlpha" operator="out"/>
<feColorMatrix type="matrix" values="0 0 0 0 0 0 0 0 0 0 0 0 0 0 0 0 0 0 0.25 0"/>
<feBlend mode="normal" in2="BackgroundImageFix" result="effect1_dropShadow_1_9"/>
<feBlend mode="normal" in="SourceGraphic" in2="effect1_dropShadow_1_9" result="shape"/>
</filter>
<filter id="filter1_d_1_9" x="27.3616" y="57.8804" width="240.277" height="187.239" filterUnits="userSpaceOnUse" color-interpolation-filters="sRGB">
<feFlood flood-opacity="0" result="BackgroundImageFix"/>
<feColorMatrix in="SourceAlpha" type="matrix" values="0 0 0 0 0 0 0 0 0 0 0 0 0 0 0 0 0 0 127 0" result="hardAlpha"/>
<feOffset dy="4"/>
<feGaussianBlur stdDeviation="2"/>
<feComposite in2="hardAlpha" operator="out"/>
<feColorMatrix type="matrix" values="0 0 0 0 0 0 0 0 0 0 0 0 0 0 0 0 0 0 0.25 0"/>
<feBlend mode="normal" in2="BackgroundImageFix" result="effect1_dropShadow_1_9"/>
<feBlend mode="normal" in="SourceGraphic" in2="effect1_dropShadow_1_9" result="shape"/>
</filter>
</defs>
</svg>
