<svg width="255" height="295" viewBox="0 0 255 295" fill="none" xmlns="http://www.w3.org/2000/svg">
<g filter="url(#filter0_d_1_9)">
<path d="M189.758 111.334C207.408 141.717 216.37 173.271 216.615 199.711C216.859 226.167 208.381 247.389 191.293 257.316C174.205 267.242 151.57 264.094 128.709 250.776C105.862 237.466 82.8922 214.049 65.2423 183.666C47.5925 153.283 38.6296 121.729 38.3855 95.2891C38.1412 68.8326 46.6189 47.611 63.7071 37.6844C80.7953 27.7577 103.43 30.906 126.291 44.2241C149.138 57.5337 172.108 80.9508 189.758 111.334Z" stroke="white" shape-rendering="crispEdges"/>
</g>
<g filter="url(#filter1_d_1_9)">
<path d="M64.2548 113.09C81.0477 82.2249 103.354 58.1744 125.819 44.2307C148.299 30.2782 170.836 26.4979 188.195 35.9426C205.555 45.3873 214.623 66.3634 215.119 92.8163C215.615 119.252 207.538 151.045 190.745 181.91C173.952 212.775 151.646 236.826 129.181 250.769C106.701 264.722 84.1637 268.502 66.8045 259.057C49.4453 249.613 40.3771 228.637 39.8811 202.184C39.3853 175.748 47.4619 143.955 64.2548 113.09Z" stroke="white" shape-rendering="crispEdges"/>
</g>
<defs>
<filter id="filter0_d_1_9" x="33.8803" y="31.3616" width="187.239" height="240.277" filterUnits="userSpaceOnUse" color-interpolation-filters="sRGB">
<feFlood flood-opacity="0" result="BackgroundImageFix"/>
<feColorMatrix in="SourceAlpha" type="matrix" values="0 0 0 0 0 0 0 0 0 0 0 0 0 0 0 0 0 0 127 0" result="hardAlpha"/>
<feOffset dy="4"/>
<feGaussianBlur stdDeviation="2"/>
<feComposite in2="hardAlpha" operator="out"/>
<feColorMatrix type="matrix" values="0 0 0 0 0 0 0 0 0 0 0 0 0 0 0 0 0 0 0.25 0"/>
<feBlend mode="normal" in2="BackgroundImageFix" result="effect1_dropShadow_1_9"/>
<feBlend mode="normal" in="SourceGraphic" in2="effect1_dropShadow_1_9" result="shape"/>
</filter>
<filter id="filter1_d_1_9" x="35.3596" y="30.2349" width="184.281" height="242.53" filterUnits="userSpaceOnUse" color-interpolation-filters="sRGB">
<feFlood flood-opacity="0" result="BackgroundImageFix"/>
<feColorMatrix in="SourceAlpha" type="matrix" values="0 0 0 0 0 0 0 0 0 0 0 0 0 0 0 0 0 0 127 0" result="hardAlpha"/>
<feOffset dy="4"/>
<feGaussianBlur stdDeviation="2"/>
<feComposite in2="hardAlpha" operator="out"/>
<feColorMatrix type="matrix" values="0 0 0 0 0 0 0 0 0 0 0 0 0 0 0 0 0 0 0.25 0"/>
<feBlend mode="normal" in2="BackgroundImageFix" result="effect1_dropShadow_1_9"/>
<feBlend mode="normal" in="SourceGraphic" in2="effect1_dropShadow_1_9" result="shape"/>
</filter>
</defs>
</svg>
