<svg width="1085" height="1085" viewBox="0 0 1085 1085" fill="none" xmlns="http://www.w3.org/2000/svg">
<rect width="1085" height="1085" fill="#080512"/>
<path d="M589.848 405.601C585.465 441.432 561.731 436.021 550.411 428.837C551.823 399.959 554.944 341.095 556.13 336.668C557.316 332.242 569.911 332.454 576.06 333.113C552.424 350.501 595.326 360.811 589.848 405.601Z" fill="#B3B3B3"/>
<path d="M495.853 395.602C500.235 431.434 523.97 426.023 535.289 418.838C533.877 389.96 530.756 331.096 529.57 326.67C528.384 322.243 515.789 322.455 509.64 323.114C533.277 340.503 490.375 350.812 495.853 395.602Z" fill="#B3B3B3"/>
<path fill-rule="evenodd" clip-rule="evenodd" d="M545.467 284C534.447 287.075 514.791 298.3 524.325 318.596C533.858 338.893 528.297 359.6 524.325 367.416C522.598 371.996 521.918 380.554 526.478 389.888L529.597 413.667C527.4 412.132 524.655 411.238 521.25 411.238C503.106 411.238 506.77 388.942 510.871 377.795C502.67 380.742 488.729 391.556 498.57 411.238C504.105 422.308 510.029 428.008 514.522 432.33C519.373 436.998 522.554 440.058 521.771 446.541L519.787 448.525H521.43C521.375 448.777 521.315 449.033 521.25 449.294H534.269L534.319 449.678L535.7 449.294H536.241L536.273 449.134L538.46 448.525H551.966C552.144 448.809 552.763 449.187 553.924 449.678C555.363 450.287 556.691 449.809 557.909 448.525H564.436C567.599 448.872 570.853 449.296 573.529 449.678C581.601 444.04 594.902 429.843 583.523 418.157C572.145 406.471 568.275 406.113 567.763 407.394C567.173 414.53 565.888 424.771 563.894 433.418L557.768 373.182L557.709 373.193C557.263 363.634 555.906 354.134 552.771 349.349C546.928 340.431 545.467 302.067 545.467 284Z" fill="#D7D7D7"/>
<path fill-rule="evenodd" clip-rule="evenodd" d="M11 572.415C39.6667 508.415 186.2 399.615 543 476.415C899.8 399.615 1046.33 508.415 1075 572.415L1032 590.915C890.8 449.715 708.833 543.082 635.5 607.415H569.5V1084.92L543 1084.92H516.5V607.415H450.5C377.167 543.082 195.2 449.715 54 590.915L11 572.415Z" fill="#AC96FC"/>
</svg>
