<svg xmlns="http://www.w3.org/2000/svg" xmlns:xlink="http://www.w3.org/1999/xlink" width="500" zoomAndPan="magnify" viewBox="0 0 375 374.999991" height="500" preserveAspectRatio="xMidYMid meet" version="1.0"><defs><g/><clipPath id="8150c0d672"><path d="M 42.609375 46 L 325.359375 46 L 325.359375 328.75 L 42.609375 328.75 Z M 42.609375 46 " clip-rule="nonzero"/></clipPath></defs><g clip-path="url(#8150c0d672)"><path fill="#78b159" d="M 325.359375 187.375 C 325.359375 189.6875 325.304688 192 325.191406 194.3125 C 325.078125 196.621094 324.90625 198.929688 324.679688 201.230469 C 324.453125 203.535156 324.171875 205.828125 323.832031 208.117188 C 323.492188 210.40625 323.097656 212.6875 322.644531 214.957031 C 322.191406 217.226562 321.6875 219.480469 321.125 221.726562 C 320.5625 223.96875 319.945312 226.199219 319.273438 228.414062 C 318.601562 230.628906 317.875 232.824219 317.097656 235.003906 C 316.316406 237.179688 315.484375 239.339844 314.597656 241.476562 C 313.714844 243.613281 312.777344 245.730469 311.789062 247.820312 C 310.796875 249.910156 309.757812 251.976562 308.667969 254.019531 C 307.578125 256.058594 306.4375 258.070312 305.246094 260.054688 C 304.058594 262.039062 302.820312 263.996094 301.535156 265.917969 C 300.25 267.84375 298.917969 269.734375 297.539062 271.589844 C 296.160156 273.449219 294.738281 275.273438 293.269531 277.0625 C 291.800781 278.851562 290.292969 280.601562 288.738281 282.316406 C 287.183594 284.03125 285.589844 285.707031 283.953125 287.34375 C 282.316406 288.976562 280.640625 290.574219 278.925781 292.125 C 277.214844 293.679688 275.460938 295.191406 273.671875 296.660156 C 271.886719 298.125 270.0625 299.550781 268.203125 300.929688 C 266.34375 302.304688 264.453125 303.636719 262.53125 304.921875 C 260.605469 306.210938 258.652344 307.445312 256.667969 308.636719 C 254.683594 309.824219 252.671875 310.964844 250.628906 312.054688 C 248.589844 313.148438 246.523438 314.1875 244.429688 315.175781 C 242.339844 316.164062 240.226562 317.101562 238.089844 317.988281 C 235.949219 318.875 233.792969 319.707031 231.613281 320.484375 C 229.433594 321.265625 227.238281 321.992188 225.023438 322.660156 C 222.8125 323.332031 220.582031 323.949219 218.335938 324.511719 C 216.09375 325.074219 213.835938 325.582031 211.566406 326.03125 C 209.296875 326.484375 207.019531 326.878906 204.730469 327.21875 C 202.441406 327.558594 200.144531 327.84375 197.84375 328.070312 C 195.539062 328.296875 193.234375 328.464844 190.921875 328.578125 C 188.613281 328.691406 186.300781 328.75 183.984375 328.75 C 181.671875 328.75 179.359375 328.691406 177.050781 328.578125 C 174.738281 328.464844 172.429688 328.296875 170.128906 328.070312 C 167.828125 327.84375 165.53125 327.558594 163.242188 327.21875 C 160.953125 326.878906 158.675781 326.484375 156.40625 326.03125 C 154.136719 325.582031 151.878906 325.074219 149.632812 324.511719 C 147.390625 323.949219 145.160156 323.332031 142.945312 322.660156 C 140.734375 321.992188 138.535156 321.265625 136.359375 320.484375 C 134.179688 319.707031 132.023438 318.875 129.882812 317.988281 C 127.746094 317.101562 125.632812 316.164062 123.539062 315.175781 C 121.449219 314.1875 119.382812 313.148438 117.34375 312.054688 C 115.300781 310.964844 113.289062 309.824219 111.304688 308.636719 C 109.320312 307.445312 107.367188 306.210938 105.441406 304.921875 C 103.519531 303.636719 101.628906 302.304688 99.769531 300.929688 C 97.910156 299.550781 96.085938 298.125 94.296875 296.660156 C 92.511719 295.191406 90.757812 293.679688 89.042969 292.125 C 87.328125 290.574219 85.65625 288.976562 84.019531 287.34375 C 82.382812 285.707031 80.789062 284.03125 79.234375 282.316406 C 77.679688 280.601562 76.167969 278.851562 74.703125 277.0625 C 73.234375 275.273438 71.8125 273.449219 70.433594 271.589844 C 69.054688 269.734375 67.722656 267.84375 66.4375 265.917969 C 65.152344 263.996094 63.914062 262.039062 62.726562 260.054688 C 61.535156 258.070312 60.394531 256.058594 59.304688 254.019531 C 58.214844 251.976562 57.171875 249.910156 56.183594 247.820312 C 55.195312 245.730469 54.257812 243.613281 53.371094 241.476562 C 52.488281 239.339844 51.65625 237.179688 50.875 235.003906 C 50.097656 232.824219 49.371094 230.628906 48.699219 228.414062 C 48.027344 226.199219 47.410156 223.96875 46.847656 221.726562 C 46.285156 219.480469 45.777344 217.226562 45.328125 214.957031 C 44.875 212.6875 44.480469 210.40625 44.140625 208.117188 C 43.800781 205.828125 43.519531 203.535156 43.292969 201.230469 C 43.066406 198.929688 42.894531 196.621094 42.78125 194.3125 C 42.667969 192 42.609375 189.6875 42.609375 187.375 C 42.609375 185.0625 42.667969 182.75 42.78125 180.4375 C 42.894531 178.125 43.066406 175.820312 43.292969 173.515625 C 43.519531 171.214844 43.800781 168.917969 44.140625 166.628906 C 44.480469 164.34375 44.875 162.0625 45.328125 159.792969 C 45.777344 157.523438 46.285156 155.269531 46.847656 153.023438 C 47.410156 150.777344 48.027344 148.550781 48.699219 146.335938 C 49.371094 144.121094 50.097656 141.925781 50.875 139.746094 C 51.65625 137.566406 52.488281 135.410156 53.371094 133.273438 C 54.257812 131.136719 55.195312 129.019531 56.183594 126.929688 C 57.171875 124.835938 58.214844 122.769531 59.304688 120.730469 C 60.394531 118.691406 61.535156 116.679688 62.726562 114.691406 C 63.914062 112.707031 65.152344 110.753906 66.4375 108.832031 C 67.722656 106.90625 69.054688 105.015625 70.433594 103.15625 C 71.8125 101.300781 73.234375 99.476562 74.703125 97.6875 C 76.167969 95.898438 77.679688 94.148438 79.234375 92.433594 C 80.789062 90.71875 82.382812 89.042969 84.019531 87.40625 C 85.65625 85.769531 87.328125 84.175781 89.042969 82.621094 C 90.757812 81.070312 92.511719 79.558594 94.296875 78.089844 C 96.085938 76.621094 97.910156 75.199219 99.769531 73.820312 C 101.628906 72.441406 103.519531 71.109375 105.441406 69.824219 C 107.367188 68.539062 109.320312 67.300781 111.304688 66.113281 C 113.289062 64.921875 115.300781 63.785156 117.34375 62.691406 C 119.382812 61.601562 121.449219 60.5625 123.539062 59.574219 C 125.632812 58.582031 127.746094 57.648438 129.882812 56.761719 C 132.023438 55.875 134.179688 55.042969 136.359375 54.265625 C 138.535156 53.484375 140.734375 52.757812 142.945312 52.085938 C 145.160156 51.414062 147.390625 50.796875 149.632812 50.238281 C 151.878906 49.675781 154.136719 49.167969 156.40625 48.714844 C 158.675781 48.265625 160.953125 47.871094 163.242188 47.53125 C 165.53125 47.191406 167.828125 46.90625 170.128906 46.679688 C 172.429688 46.453125 174.738281 46.285156 177.050781 46.167969 C 179.359375 46.054688 181.671875 46 183.984375 46 C 186.300781 46 188.613281 46.054688 190.921875 46.167969 C 193.234375 46.285156 195.539062 46.453125 197.84375 46.679688 C 200.144531 46.90625 202.441406 47.191406 204.730469 47.53125 C 207.019531 47.871094 209.296875 48.265625 211.566406 48.714844 C 213.835938 49.167969 216.09375 49.675781 218.335938 50.238281 C 220.582031 50.796875 222.8125 51.414062 225.023438 52.085938 C 227.238281 52.757812 229.433594 53.484375 231.613281 54.265625 C 233.792969 55.042969 235.949219 55.875 238.089844 56.761719 C 240.226562 57.648438 242.339844 58.582031 244.429688 59.574219 C 246.523438 60.5625 248.589844 61.601562 250.628906 62.691406 C 252.671875 63.785156 254.683594 64.921875 256.667969 66.113281 C 258.652344 67.300781 260.605469 68.539062 262.53125 69.824219 C 264.453125 71.109375 266.34375 72.441406 268.203125 73.820312 C 270.0625 75.199219 271.886719 76.621094 273.671875 78.089844 C 275.460938 79.558594 277.214844 81.070312 278.925781 82.621094 C 280.640625 84.175781 282.316406 85.769531 283.953125 87.40625 C 285.589844 89.042969 287.183594 90.71875 288.738281 92.433594 C 290.292969 94.148438 291.800781 95.898438 293.269531 97.6875 C 294.738281 99.476562 296.160156 101.300781 297.539062 103.15625 C 298.917969 105.015625 300.25 106.90625 301.535156 108.832031 C 302.820312 110.753906 304.058594 112.707031 305.246094 114.691406 C 306.4375 116.679688 307.578125 118.691406 308.667969 120.730469 C 309.757812 122.769531 310.796875 124.835938 311.789062 126.929688 C 312.777344 129.019531 313.714844 131.136719 314.597656 133.273438 C 315.484375 135.410156 316.316406 137.566406 317.097656 139.746094 C 317.875 141.925781 318.601562 144.121094 319.273438 146.335938 C 319.945312 148.550781 320.5625 150.777344 321.125 153.023438 C 321.6875 155.269531 322.191406 157.523438 322.644531 159.792969 C 323.097656 162.0625 323.492188 164.34375 323.832031 166.628906 C 324.171875 168.917969 324.453125 171.214844 324.679688 173.515625 C 324.90625 175.820312 325.078125 178.125 325.191406 180.4375 C 325.304688 182.75 325.359375 185.0625 325.359375 187.375 Z M 325.359375 187.375 " fill-opacity="1" fill-rule="nonzero"/></g><g fill="#000000" fill-opacity="1"><g transform="translate(92.592236, 216.284728)"><g><path d="M 5.984375 -3.375 C 2.835938 -6.175781 1.265625 -9.769531 1.265625 -14.15625 C 1.265625 -18.539062 2.90625 -22.140625 6.1875 -24.953125 C 9.46875 -27.773438 13.523438 -29.1875 18.359375 -29.1875 C 23.109375 -29.1875 27.113281 -27.765625 30.375 -24.921875 C 33.632812 -22.085938 35.265625 -18.492188 35.265625 -14.140625 C 35.265625 -9.796875 33.671875 -6.210938 30.484375 -3.390625 C 27.296875 -0.578125 23.253906 0.828125 18.359375 0.828125 C 13.265625 0.828125 9.140625 -0.570312 5.984375 -3.375 Z M 13.578125 -18.953125 C 12.304688 -17.703125 11.671875 -16.097656 11.671875 -14.140625 C 11.671875 -12.191406 12.273438 -10.597656 13.484375 -9.359375 C 14.703125 -8.128906 16.304688 -7.515625 18.296875 -7.515625 C 20.210938 -7.515625 21.785156 -8.140625 23.015625 -9.390625 C 24.253906 -10.648438 24.875 -12.238281 24.875 -14.15625 C 24.875 -16.101562 24.238281 -17.703125 22.96875 -18.953125 C 21.695312 -20.210938 20.140625 -20.84375 18.296875 -20.84375 C 16.421875 -20.84375 14.847656 -20.210938 13.578125 -18.953125 Z M 13.578125 -18.953125 "/></g></g></g><g fill="#000000" fill-opacity="1"><g transform="translate(126.368942, 216.284728)"><g><path d="M 3.3125 0 L 3.3125 -28.359375 L 13.109375 -28.359375 L 13.109375 -25.375 L 13.21875 -25.375 C 15.757812 -27.914062 18.46875 -29.1875 21.34375 -29.1875 C 22.738281 -29.1875 24.125 -29 25.5 -28.625 C 26.882812 -28.257812 28.210938 -27.691406 29.484375 -26.921875 C 30.765625 -26.148438 31.800781 -25.050781 32.59375 -23.625 C 33.382812 -22.207031 33.78125 -20.5625 33.78125 -18.6875 L 33.78125 0 L 23.984375 0 L 23.984375 -16.03125 C 23.984375 -17.507812 23.515625 -18.800781 22.578125 -19.90625 C 21.640625 -21.007812 20.414062 -21.5625 18.90625 -21.5625 C 17.425781 -21.5625 16.085938 -20.988281 14.890625 -19.84375 C 13.703125 -18.695312 13.109375 -17.425781 13.109375 -16.03125 L 13.109375 0 Z M 3.3125 0 "/></g></g></g><g fill="#000000" fill-opacity="1"><g transform="translate(160.145649, 216.284728)"><g><path d="M 3.3125 0 L 3.3125 -47.546875 L 13.109375 -47.546875 L 13.109375 0 Z M 3.3125 0 "/></g></g></g><g fill="#000000" fill-opacity="1"><g transform="translate(173.800064, 216.284728)"><g><path d="M 24.828125 -28.359375 L 36.09375 -28.359375 L 13.8125 14.375 L 2.546875 14.375 L 12.328125 -4.421875 L -1.109375 -28.359375 L 10.171875 -28.359375 L 18.078125 -13.8125 Z M 24.828125 -28.359375 "/></g></g></g><g fill="#000000" fill-opacity="1"><g transform="translate(206.028903, 216.284728)"><g><path d="M 4.96875 -28.359375 L 4.96875 -34.390625 C 5.007812 -38.628906 6.003906 -42.019531 7.953125 -44.5625 C 9.910156 -47.101562 12.625 -48.375 16.09375 -48.375 C 17.5625 -48.375 18.96875 -48.160156 20.3125 -47.734375 C 21.65625 -47.304688 22.625 -46.875 23.21875 -46.4375 L 24.15625 -45.828125 L 20.734375 -38.921875 C 19.847656 -39.429688 18.867188 -39.6875 17.796875 -39.6875 C 16.578125 -39.6875 15.765625 -39.269531 15.359375 -38.4375 C 14.960938 -37.613281 14.765625 -36.171875 14.765625 -34.109375 L 14.765625 -28.359375 L 21.28125 -28.359375 L 21.28125 -20.890625 L 14.765625 -20.890625 L 14.765625 0 L 4.96875 0 L 4.96875 -20.890625 L 0.890625 -20.890625 L 0.890625 -28.359375 Z M 4.96875 -28.359375 "/></g></g></g><g fill="#000000" fill-opacity="1"><g transform="translate(223.995234, 216.284728)"><g><path d="M 5.25 -3.5 C 2.59375 -6.394531 1.265625 -9.941406 1.265625 -14.140625 C 1.265625 -18.347656 2.59375 -21.90625 5.25 -24.8125 C 7.90625 -27.726562 11.28125 -29.1875 15.375 -29.1875 C 19.125 -29.1875 22.21875 -28.007812 24.65625 -25.65625 L 24.65625 -28.359375 L 34.4375 -28.359375 L 34.4375 0 L 24.765625 0 L 24.765625 -3.203125 L 24.65625 -3.203125 C 22.21875 -0.515625 19.125 0.828125 15.375 0.828125 C 11.28125 0.828125 7.90625 -0.613281 5.25 -3.5 Z M 13.578125 -18.953125 C 12.304688 -17.703125 11.671875 -16.097656 11.671875 -14.140625 C 11.671875 -12.191406 12.273438 -10.597656 13.484375 -9.359375 C 14.703125 -8.128906 16.304688 -7.515625 18.296875 -7.515625 C 20.210938 -7.515625 21.785156 -8.140625 23.015625 -9.390625 C 24.253906 -10.648438 24.875 -12.238281 24.875 -14.15625 C 24.875 -16.101562 24.238281 -17.703125 22.96875 -18.953125 C 21.695312 -20.210938 20.140625 -20.84375 18.296875 -20.84375 C 16.421875 -20.84375 14.847656 -20.210938 13.578125 -18.953125 Z M 13.578125 -18.953125 "/></g></g></g><g fill="#000000" fill-opacity="1"><g transform="translate(258.988116, 216.284728)"><g><path d="M 36.15625 0 L 24.328125 0 L 18.078125 -8.015625 L 11.828125 0 L 0 0 L 12.109375 -14.8125 L 1.71875 -28.359375 L 13.15625 -28.359375 L 18.078125 -21.78125 L 23 -28.359375 L 34.4375 -28.359375 L 24.046875 -14.8125 Z M 36.15625 0 "/></g></g></g><g fill="#000000" fill-opacity="1"><g transform="translate(292.377851, 216.284728)"><g><path d="M 9.625 -11.828125 C 11.382812 -11.828125 12.878906 -11.207031 14.109375 -9.96875 C 15.347656 -8.738281 15.96875 -7.238281 15.96875 -5.46875 C 15.96875 -3.738281 15.347656 -2.253906 14.109375 -1.015625 C 12.878906 0.210938 11.382812 0.828125 9.625 0.828125 C 7.882812 0.828125 6.394531 0.210938 5.15625 -1.015625 C 3.925781 -2.253906 3.3125 -3.738281 3.3125 -5.46875 C 3.3125 -7.238281 3.925781 -8.738281 5.15625 -9.96875 C 6.394531 -11.207031 7.882812 -11.828125 9.625 -11.828125 Z M 9.625 -11.828125 "/></g></g></g></svg>