<svg id="visual" viewBox="0 0 900 600" width="900" height="600" xmlns="http://www.w3.org/2000/svg" xmlns:xlink="http://www.w3.org/1999/xlink" version="1.1"><rect x="0" y="0" width="900" height="600" fill="#1d1d1d"></rect><path d="M0 429L21.5 424.8C43 420.7 86 412.3 128.8 406.8C171.7 401.3 214.3 398.7 257.2 405.5C300 412.3 343 428.7 385.8 428.3C428.7 428 471.3 411 514.2 399.7C557 388.3 600 382.7 642.8 386.7C685.7 390.7 728.3 404.3 771.2 410.3C814 416.3 857 414.7 878.5 413.8L900 413L900 601L878.5 601C857 601 814 601 771.2 601C728.3 601 685.7 601 642.8 601C600 601 557 601 514.2 601C471.3 601 428.7 601 385.8 601C343 601 300 601 257.2 601C214.3 601 171.7 601 128.8 601C86 601 43 601 21.5 601L0 601Z" fill="#fa7268"></path><path d="M0 439L21.5 435.2C43 431.3 86 423.7 128.8 420.8C171.7 418 214.3 420 257.2 430C300 440 343 458 385.8 463.5C428.7 469 471.3 462 514.2 448.8C557 435.7 600 416.3 642.8 406.7C685.7 397 728.3 397 771.2 399.8C814 402.7 857 408.3 878.5 411.2L900 414L900 601L878.5 601C857 601 814 601 771.2 601C728.3 601 685.7 601 642.8 601C600 601 557 601 514.2 601C471.3 601 428.7 601 385.8 601C343 601 300 601 257.2 601C214.3 601 171.7 601 128.8 601C86 601 43 601 21.5 601L0 601Z" fill="#ef5f67"></path><path d="M0 492L21.5 493.5C43 495 86 498 128.8 501C171.7 504 214.3 507 257.2 499.5C300 492 343 474 385.8 463.5C428.7 453 471.3 450 514.2 458.2C557 466.3 600 485.7 642.8 491.5C685.7 497.3 728.3 489.7 771.2 483.2C814 476.7 857 471.3 878.5 468.7L900 466L900 601L878.5 601C857 601 814 601 771.2 601C728.3 601 685.7 601 642.8 601C600 601 557 601 514.2 601C471.3 601 428.7 601 385.8 601C343 601 300 601 257.2 601C214.3 601 171.7 601 128.8 601C86 601 43 601 21.5 601L0 601Z" fill="#e34c67"></path><path d="M0 533L21.5 534C43 535 86 537 128.8 531.7C171.7 526.3 214.3 513.7 257.2 505.8C300 498 343 495 385.8 496.3C428.7 497.7 471.3 503.3 514.2 502.7C557 502 600 495 642.8 492.7C685.7 490.3 728.3 492.7 771.2 492.5C814 492.3 857 489.7 878.5 488.3L900 487L900 601L878.5 601C857 601 814 601 771.2 601C728.3 601 685.7 601 642.8 601C600 601 557 601 514.2 601C471.3 601 428.7 601 385.8 601C343 601 300 601 257.2 601C214.3 601 171.7 601 128.8 601C86 601 43 601 21.5 601L0 601Z" fill="#d53867"></path><path d="M0 525L21.5 526C43 527 86 529 128.8 530.8C171.7 532.7 214.3 534.3 257.2 534.7C300 535 343 534 385.8 533.3C428.7 532.7 471.3 532.3 514.2 534C557 535.7 600 539.3 642.8 541.7C685.7 544 728.3 545 771.2 542.8C814 540.7 857 535.3 878.5 532.7L900 530L900 601L878.5 601C857 601 814 601 771.2 601C728.3 601 685.7 601 642.8 601C600 601 557 601 514.2 601C471.3 601 428.7 601 385.8 601C343 601 300 601 257.2 601C214.3 601 171.7 601 128.8 601C86 601 43 601 21.5 601L0 601Z" fill="#c62368"></path></svg>